%TF.GenerationSoftware,KiCad,Pcbnew,7.0.7*%
%TF.CreationDate,2024-03-06T17:39:43+09:00*%
%TF.ProjectId,AltairMD_V7,416c7461-6972-44d4-945f-56372e6b6963,rev?*%
%TF.SameCoordinates,Original*%
%TF.FileFunction,Copper,L2,Bot*%
%TF.FilePolarity,Positive*%
%FSLAX46Y46*%
G04 Gerber Fmt 4.6, Leading zero omitted, Abs format (unit mm)*
G04 Created by KiCad (PCBNEW 7.0.7) date 2024-03-06 17:39:43*
%MOMM*%
%LPD*%
G01*
G04 APERTURE LIST*
G04 Aperture macros list*
%AMRoundRect*
0 Rectangle with rounded corners*
0 $1 Rounding radius*
0 $2 $3 $4 $5 $6 $7 $8 $9 X,Y pos of 4 corners*
0 Add a 4 corners polygon primitive as box body*
4,1,4,$2,$3,$4,$5,$6,$7,$8,$9,$2,$3,0*
0 Add four circle primitives for the rounded corners*
1,1,$1+$1,$2,$3*
1,1,$1+$1,$4,$5*
1,1,$1+$1,$6,$7*
1,1,$1+$1,$8,$9*
0 Add four rect primitives between the rounded corners*
20,1,$1+$1,$2,$3,$4,$5,0*
20,1,$1+$1,$4,$5,$6,$7,0*
20,1,$1+$1,$6,$7,$8,$9,0*
20,1,$1+$1,$8,$9,$2,$3,0*%
G04 Aperture macros list end*
%TA.AperFunction,ComponentPad*%
%ADD10C,4.100000*%
%TD*%
%TA.AperFunction,ComponentPad*%
%ADD11RoundRect,1.025000X1.025000X-1.025000X1.025000X1.025000X-1.025000X1.025000X-1.025000X-1.025000X0*%
%TD*%
%TA.AperFunction,ComponentPad*%
%ADD12R,2.000000X0.900000*%
%TD*%
%TA.AperFunction,ComponentPad*%
%ADD13O,1.950000X1.700000*%
%TD*%
%TA.AperFunction,ComponentPad*%
%ADD14RoundRect,0.250000X-0.725000X0.600000X-0.725000X-0.600000X0.725000X-0.600000X0.725000X0.600000X0*%
%TD*%
%TA.AperFunction,ComponentPad*%
%ADD15RoundRect,1.025000X-1.025000X1.025000X-1.025000X-1.025000X1.025000X-1.025000X1.025000X1.025000X0*%
%TD*%
%TA.AperFunction,ViaPad*%
%ADD16C,0.800000*%
%TD*%
%TA.AperFunction,Conductor*%
%ADD17C,1.500000*%
%TD*%
%TA.AperFunction,Conductor*%
%ADD18C,0.500000*%
%TD*%
%TA.AperFunction,Conductor*%
%ADD19C,1.000000*%
%TD*%
G04 APERTURE END LIST*
D10*
%TO.P,J4,2,Pin_2*%
%TO.N,+24V*%
X123576000Y-100496000D03*
D11*
%TO.P,J4,1,Pin_1*%
%TO.N,GND2*%
X123576000Y-107696000D03*
D12*
%TO.P,J4,*%
%TO.N,*%
X117576000Y-97346000D03*
X117576000Y-110846000D03*
%TD*%
D13*
%TO.P,J3,4,Pin_4*%
%TO.N,Ps1*%
X115887000Y-72350000D03*
%TO.P,J3,3,Pin_3*%
%TO.N,Ps2*%
X115887000Y-69850000D03*
%TO.P,J3,2,Pin_2*%
%TO.N,SDs*%
X115887000Y-67350000D03*
D14*
%TO.P,J3,1,Pin_1*%
%TO.N,GND*%
X115887000Y-64850000D03*
%TD*%
D12*
%TO.P,J2,*%
%TO.N,*%
X201580000Y-107804000D03*
X201580000Y-121304000D03*
D15*
%TO.P,J2,1,Pin_1*%
%TO.N,Net-(D1-A)*%
X195580000Y-118154000D03*
D10*
%TO.P,J2,2,Pin_2*%
%TO.N,Net-(D5-A)*%
X195580000Y-110954000D03*
%TD*%
%TO.P,J1,2,Pin_2*%
%TO.N,+24V*%
X123672000Y-122428000D03*
D11*
%TO.P,J1,1,Pin_1*%
%TO.N,GND2*%
X123672000Y-129628000D03*
D12*
%TO.P,J1,*%
%TO.N,*%
X117672000Y-119278000D03*
X117672000Y-132778000D03*
%TD*%
D16*
%TO.N,GND2*%
X170180000Y-91440000D03*
X170180000Y-86360000D03*
X172720000Y-83820000D03*
X175260000Y-86360000D03*
X175260000Y-91440000D03*
%TO.N,Net-(Q2-Pad1)*%
X176276000Y-127793000D03*
X175006000Y-126619000D03*
X178033000Y-129550000D03*
%TO.N,GND2*%
X169468800Y-80924400D03*
X168351200Y-80899000D03*
X167259000Y-80899000D03*
%TO.N,Net-(Q3-Pad1)*%
X161590000Y-105232200D03*
%TO.N,GND2*%
X148717000Y-74396600D03*
X147193000Y-74422000D03*
X145745200Y-74371200D03*
X147701000Y-73304400D03*
X149123400Y-73304400D03*
X142367000Y-71120000D03*
X142443200Y-66802000D03*
X140690600Y-71145400D03*
X140690600Y-66827400D03*
%TO.N,Net-(Q1-Pad1)*%
X164338000Y-124968000D03*
X163118800Y-126161800D03*
%TO.N,GND2*%
X168198800Y-71247000D03*
X166903400Y-71247000D03*
X169341800Y-71221600D03*
X155702000Y-74676000D03*
X155702000Y-76708000D03*
X155702000Y-78486000D03*
X149352000Y-69850000D03*
X155956000Y-67310000D03*
X150114000Y-63246000D03*
X147828000Y-63246000D03*
X147320000Y-66802000D03*
X147320000Y-78740000D03*
X142240000Y-78740000D03*
X139700000Y-81280000D03*
X144780000Y-81280000D03*
X149860000Y-81280000D03*
X154940000Y-81280000D03*
X157480000Y-83820000D03*
X152400000Y-83820000D03*
X147320000Y-83820000D03*
X142240000Y-83820000D03*
X137160000Y-83820000D03*
X139700000Y-86360000D03*
X144780000Y-86360000D03*
X149860000Y-86360000D03*
X152400000Y-93980000D03*
X149860000Y-96520000D03*
X144780000Y-96520000D03*
X139700000Y-96520000D03*
X137160000Y-93980000D03*
X142240000Y-93980000D03*
X147320000Y-93980000D03*
X149860000Y-91440000D03*
X144780000Y-91440000D03*
X139700000Y-91440000D03*
X137160000Y-88900000D03*
X142240000Y-88900000D03*
X147320000Y-88900000D03*
X152400000Y-88900000D03*
X154940000Y-86360000D03*
X154940000Y-91440000D03*
X160020000Y-91440000D03*
X160020000Y-86360000D03*
X157480000Y-88900000D03*
X198120000Y-93980000D03*
X195580000Y-91440000D03*
X193040000Y-88900000D03*
X190500000Y-86360000D03*
X185420000Y-86360000D03*
X187960000Y-88900000D03*
X190500000Y-91440000D03*
X185420000Y-91440000D03*
X187960000Y-93980000D03*
X193040000Y-93980000D03*
X195580000Y-96520000D03*
X190500000Y-96520000D03*
X185420000Y-96520000D03*
X170180000Y-101600000D03*
X172720000Y-104140000D03*
X172720000Y-99060000D03*
X172720000Y-93980000D03*
X172720000Y-88900000D03*
X177800000Y-83820000D03*
X177800000Y-88900000D03*
X177800000Y-93980000D03*
X185420000Y-101600000D03*
X187960000Y-99060000D03*
X190500000Y-101600000D03*
X193040000Y-99060000D03*
X195580000Y-101600000D03*
X198120000Y-99060000D03*
X121920000Y-78740000D03*
X116840000Y-78740000D03*
X111760000Y-78740000D03*
X106680000Y-78740000D03*
X109220000Y-81280000D03*
X114300000Y-81280000D03*
X124460000Y-86360000D03*
X119380000Y-86360000D03*
X116840000Y-83820000D03*
X111760000Y-83820000D03*
X106680000Y-83820000D03*
X109220000Y-86360000D03*
X114300000Y-86360000D03*
X127000000Y-93980000D03*
X124460000Y-96520000D03*
X119380000Y-96520000D03*
X124460000Y-91440000D03*
X121920000Y-93980000D03*
X121920000Y-88900000D03*
X119380000Y-91440000D03*
X116840000Y-88900000D03*
X111760000Y-88900000D03*
X114300000Y-91440000D03*
X114300000Y-96520000D03*
X116840000Y-93980000D03*
X111760000Y-93980000D03*
X109220000Y-96520000D03*
X109220000Y-91440000D03*
X106680000Y-88900000D03*
X106680000Y-93980000D03*
X106680000Y-99060000D03*
X106680000Y-119380000D03*
X106680000Y-124460000D03*
X106680000Y-114300000D03*
X106680000Y-109220000D03*
X106680000Y-104140000D03*
X203200000Y-114300000D03*
X198120000Y-114300000D03*
X193040000Y-114300000D03*
X187960000Y-114300000D03*
X182880000Y-114300000D03*
X177800000Y-114300000D03*
X172720000Y-114300000D03*
X172720000Y-129540000D03*
X203200000Y-119380000D03*
X200660000Y-116840000D03*
X203200000Y-134620000D03*
X203200000Y-124460000D03*
X203200000Y-129540000D03*
X200660000Y-132080000D03*
X195580000Y-142240000D03*
X195580000Y-137160000D03*
X193040000Y-139700000D03*
X190500000Y-142240000D03*
X185420000Y-142240000D03*
X187960000Y-139700000D03*
X190500000Y-137160000D03*
X193040000Y-134620000D03*
X195580000Y-132080000D03*
X198120000Y-134620000D03*
X198120000Y-129540000D03*
X198120000Y-124460000D03*
X200660000Y-127000000D03*
X195580000Y-127000000D03*
X193040000Y-129540000D03*
X190500000Y-132080000D03*
X187960000Y-134620000D03*
X185420000Y-137160000D03*
X182880000Y-139700000D03*
X180340000Y-142240000D03*
X185420000Y-132080000D03*
X182880000Y-134620000D03*
X180340000Y-137160000D03*
X177800000Y-139700000D03*
X175260000Y-142240000D03*
X170180000Y-142240000D03*
X172720000Y-139700000D03*
X175260000Y-137160000D03*
X177800000Y-134620000D03*
X180340000Y-132080000D03*
X175260000Y-132080000D03*
X172720000Y-134620000D03*
X170180000Y-137160000D03*
X165100000Y-137160000D03*
X167640000Y-134620000D03*
X170180000Y-132080000D03*
X165100000Y-127000000D03*
X170180000Y-127000000D03*
X167640000Y-129540000D03*
X165100000Y-132080000D03*
X162560000Y-134620000D03*
X160020000Y-137160000D03*
X160020000Y-132080000D03*
X157480000Y-134620000D03*
X154940000Y-137160000D03*
X154940000Y-132080000D03*
X152400000Y-134620000D03*
X149860000Y-137160000D03*
X149860000Y-132080000D03*
X147320000Y-134620000D03*
X144780000Y-137160000D03*
X144780000Y-132080000D03*
X142240000Y-134620000D03*
X139700000Y-137160000D03*
X142240000Y-129540000D03*
X137160000Y-134620000D03*
X134620000Y-137160000D03*
X106680000Y-134620000D03*
X106680000Y-129540000D03*
X109220000Y-127000000D03*
X109220000Y-132080000D03*
X111760000Y-134620000D03*
X111760000Y-129540000D03*
X129540000Y-127000000D03*
X127000000Y-129540000D03*
X134620000Y-127000000D03*
X132080000Y-134620000D03*
X129540000Y-137160000D03*
X124460000Y-137160000D03*
X127000000Y-134620000D03*
X121920000Y-134620000D03*
X119380000Y-137160000D03*
X119380000Y-132080000D03*
X129540000Y-132080000D03*
X134620000Y-132080000D03*
X137160000Y-129540000D03*
X139700000Y-132080000D03*
X139700000Y-127000000D03*
X139700000Y-116840000D03*
X139700000Y-106680000D03*
X139700000Y-111760000D03*
X137160000Y-109220000D03*
X137160000Y-104140000D03*
X134620000Y-106680000D03*
X132080000Y-104140000D03*
X129540000Y-106680000D03*
X127000000Y-104140000D03*
X127000000Y-109220000D03*
X121920000Y-104140000D03*
X119380000Y-106680000D03*
X116840000Y-104140000D03*
X116840000Y-109220000D03*
X119380000Y-111760000D03*
X124460000Y-111760000D03*
X129540000Y-111760000D03*
X134620000Y-111760000D03*
X137160000Y-114300000D03*
X134620000Y-116840000D03*
X132080000Y-114300000D03*
X129540000Y-116840000D03*
X127000000Y-114300000D03*
X124460000Y-116840000D03*
X121920000Y-114300000D03*
X119380000Y-116840000D03*
X116840000Y-114300000D03*
X116840000Y-129540000D03*
X116840000Y-134620000D03*
X114300000Y-127000000D03*
X114300000Y-132080000D03*
X114300000Y-137160000D03*
%TO.N,Net-(D5-A)*%
X180333000Y-107842000D03*
X180340000Y-81026000D03*
%TO.N,GND2*%
X154940000Y-71120000D03*
X154940000Y-68580000D03*
X154940000Y-66040000D03*
%TO.N,Net-(Q1-Pad1)*%
X161590000Y-126158000D03*
%TO.N,Net-(Q4-Pad1)*%
X182626000Y-95504000D03*
X182626000Y-97282000D03*
X182633000Y-99342000D03*
%TO.N,Net-(Q3-Pad1)*%
X161590000Y-107334000D03*
X167894000Y-66548000D03*
X168910000Y-66548000D03*
X169926000Y-66548000D03*
%TO.N,Net-(Q4-Pad1)*%
X169926000Y-69596000D03*
X168910000Y-69596000D03*
X167894000Y-69596000D03*
%TO.N,Net-(Q1-Pad1)*%
X169926000Y-76200000D03*
X168910000Y-76200000D03*
X167894000Y-76200000D03*
%TO.N,Net-(Q2-Pad1)*%
X167894000Y-79248000D03*
X168910000Y-79248000D03*
X169926000Y-79248000D03*
%TO.N,SD*%
X154686000Y-54864000D03*
X137414000Y-65278000D03*
%TO.N,PWM2*%
X150622000Y-54864000D03*
X137414000Y-69596000D03*
%TO.N,PWM1*%
X146558000Y-54864000D03*
X137414000Y-73914000D03*
%TO.N,SD*%
X150876000Y-67818000D03*
X150876000Y-77470000D03*
X150114000Y-65278000D03*
%TD*%
D17*
%TO.N,Net-(Q3-Pad1)*%
X161590000Y-105232200D02*
X161590000Y-67772000D01*
X161590000Y-105232200D02*
X161590000Y-107334000D01*
X161590000Y-67772000D02*
X162814000Y-66548000D01*
X162814000Y-66548000D02*
X169926000Y-66548000D01*
%TO.N,Net-(Q2-Pad1)*%
X170818800Y-80140800D02*
X169926000Y-79248000D01*
X168402000Y-83900389D02*
X170818800Y-81483589D01*
X168402000Y-120142000D02*
X168402000Y-83900389D01*
X177810000Y-129550000D02*
X168402000Y-120142000D01*
X178033000Y-129550000D02*
X177810000Y-129550000D01*
X170818800Y-81483589D02*
X170818800Y-80140800D01*
%TO.N,Net-(Q1-Pad1)*%
X164338000Y-124968000D02*
X164338000Y-78740000D01*
X166878000Y-76200000D02*
X169926000Y-76200000D01*
X163122600Y-126158000D02*
X163118800Y-126161800D01*
X163148000Y-126158000D02*
X163122600Y-126158000D01*
X164338000Y-124968000D02*
X163148000Y-126158000D01*
X164338000Y-78740000D02*
X166878000Y-76200000D01*
X163115000Y-126158000D02*
X161590000Y-126158000D01*
X163118800Y-126161800D02*
X163115000Y-126158000D01*
D18*
%TO.N,Net-(D5-A)*%
X180340000Y-83044000D02*
X180333000Y-83051000D01*
X180333000Y-83051000D02*
X180333000Y-107842000D01*
X180340000Y-81026000D02*
X180340000Y-83044000D01*
D17*
%TO.N,Net-(Q2-Pad1)*%
X167894000Y-79248000D02*
X169926000Y-79248000D01*
%TO.N,Net-(Q1-Pad1)*%
X167894000Y-76200000D02*
X169926000Y-76200000D01*
%TO.N,Net-(Q4-Pad1)*%
X182633000Y-95511000D02*
X182633000Y-97275000D01*
X182626000Y-95504000D02*
X182633000Y-95511000D01*
X182633000Y-95497000D02*
X182626000Y-95504000D01*
X182633000Y-97289000D02*
X182633000Y-99342000D01*
X182626000Y-97282000D02*
X182633000Y-97289000D01*
X182633000Y-97275000D02*
X182626000Y-97282000D01*
X180340000Y-69596000D02*
X182633000Y-71889000D01*
X169926000Y-69596000D02*
X180340000Y-69596000D01*
X182633000Y-71889000D02*
X182633000Y-95497000D01*
X167894000Y-69596000D02*
X169926000Y-69596000D01*
D19*
%TO.N,SD*%
X150622000Y-58928000D02*
X154686000Y-54864000D01*
X143764000Y-58928000D02*
X150622000Y-58928000D01*
X140208000Y-59944000D02*
X141224000Y-58928000D01*
X141224000Y-58928000D02*
X143764000Y-58928000D01*
X137414000Y-62738000D02*
X140208000Y-59944000D01*
X137414000Y-65278000D02*
X137414000Y-62738000D01*
%TO.N,PWM2*%
X148336000Y-57150000D02*
X150622000Y-54864000D01*
X140716000Y-57150000D02*
X148336000Y-57150000D01*
X140462000Y-57150000D02*
X140716000Y-57150000D01*
X136144000Y-61468000D02*
X137160000Y-60452000D01*
X136144000Y-66040000D02*
X136144000Y-61468000D01*
X136144000Y-68326000D02*
X136144000Y-66040000D01*
X137414000Y-69596000D02*
X136144000Y-68326000D01*
X137160000Y-60452000D02*
X140462000Y-57150000D01*
%TO.N,PWM1*%
X139192000Y-54864000D02*
X146558000Y-54864000D01*
X134366000Y-59690000D02*
X139192000Y-54864000D01*
X134366000Y-73152000D02*
X134366000Y-59690000D01*
X135128000Y-73914000D02*
X134366000Y-73152000D01*
X137414000Y-73914000D02*
X135128000Y-73914000D01*
%TO.N,SD*%
X150114000Y-65278000D02*
X150876000Y-66040000D01*
X150876000Y-66040000D02*
X150876000Y-67818000D01*
X150876000Y-67818000D02*
X150876000Y-77470000D01*
%TD*%
%TA.AperFunction,Conductor*%
%TO.N,GND2*%
G36*
X199948158Y-46000484D02*
G01*
X199948212Y-46000500D01*
X199998560Y-46000500D01*
X200001423Y-46000566D01*
X200040986Y-46002394D01*
X200172950Y-46008495D01*
X200372549Y-46018302D01*
X200378048Y-46018819D01*
X200563357Y-46044668D01*
X200749828Y-46072329D01*
X200754871Y-46073294D01*
X200939341Y-46116681D01*
X201120221Y-46161989D01*
X201124797Y-46163327D01*
X201305568Y-46223916D01*
X201480339Y-46286450D01*
X201484471Y-46288100D01*
X201542986Y-46313936D01*
X201659474Y-46365370D01*
X201826973Y-46444592D01*
X201830601Y-46446457D01*
X201998142Y-46539778D01*
X202156964Y-46634972D01*
X202160119Y-46636996D01*
X202318603Y-46745559D01*
X202467377Y-46855897D01*
X202470001Y-46857957D01*
X202618027Y-46980876D01*
X202755321Y-47105314D01*
X202757514Y-47107402D01*
X202892596Y-47242484D01*
X202894687Y-47244680D01*
X203019129Y-47381980D01*
X203142034Y-47529989D01*
X203144109Y-47532632D01*
X203254437Y-47681392D01*
X203287989Y-47730371D01*
X203363002Y-47839879D01*
X203365032Y-47843044D01*
X203460221Y-48001857D01*
X203553527Y-48169371D01*
X203555410Y-48173034D01*
X203634638Y-48340547D01*
X203711899Y-48515527D01*
X203713558Y-48519685D01*
X203776093Y-48694459D01*
X203836662Y-48875173D01*
X203838018Y-48879812D01*
X203883317Y-49060654D01*
X203926696Y-49245090D01*
X203927672Y-49250189D01*
X203955337Y-49436689D01*
X203981177Y-49621933D01*
X203981697Y-49627459D01*
X203991512Y-49827238D01*
X203999434Y-49998575D01*
X203999500Y-50001439D01*
X203999500Y-139998560D01*
X203999434Y-140001424D01*
X203991512Y-140172761D01*
X203981697Y-140372539D01*
X203981177Y-140378065D01*
X203955337Y-140563310D01*
X203927672Y-140749809D01*
X203926696Y-140754908D01*
X203883317Y-140939345D01*
X203838018Y-141120186D01*
X203836662Y-141124825D01*
X203776093Y-141305540D01*
X203713557Y-141480314D01*
X203711899Y-141484470D01*
X203634638Y-141659452D01*
X203555410Y-141826964D01*
X203553527Y-141830627D01*
X203460221Y-141998142D01*
X203365032Y-142156954D01*
X203363002Y-142160118D01*
X203254437Y-142318608D01*
X203144121Y-142467350D01*
X203142021Y-142470025D01*
X203019132Y-142618016D01*
X202894695Y-142755310D01*
X202892596Y-142757514D01*
X202757514Y-142892596D01*
X202755310Y-142894695D01*
X202618016Y-143019132D01*
X202470025Y-143142021D01*
X202467350Y-143144121D01*
X202318608Y-143254437D01*
X202160118Y-143363002D01*
X202156954Y-143365032D01*
X201998142Y-143460221D01*
X201830627Y-143553527D01*
X201826964Y-143555410D01*
X201659452Y-143634638D01*
X201484470Y-143711899D01*
X201480314Y-143713557D01*
X201305540Y-143776093D01*
X201124825Y-143836662D01*
X201120186Y-143838018D01*
X200939345Y-143883317D01*
X200754908Y-143926696D01*
X200749809Y-143927672D01*
X200563310Y-143955337D01*
X200378065Y-143981177D01*
X200372539Y-143981697D01*
X200172761Y-143991512D01*
X200001424Y-143999434D01*
X199998560Y-143999500D01*
X110001440Y-143999500D01*
X109998576Y-143999434D01*
X109827238Y-143991512D01*
X109627459Y-143981697D01*
X109621933Y-143981177D01*
X109436689Y-143955337D01*
X109250189Y-143927672D01*
X109245090Y-143926696D01*
X109060654Y-143883317D01*
X108879812Y-143838018D01*
X108875173Y-143836662D01*
X108694459Y-143776093D01*
X108519685Y-143713558D01*
X108515527Y-143711899D01*
X108340547Y-143634638D01*
X108173034Y-143555410D01*
X108169371Y-143553527D01*
X108001857Y-143460221D01*
X107843044Y-143365032D01*
X107839879Y-143363002D01*
X107730371Y-143287989D01*
X107681392Y-143254437D01*
X107532632Y-143144109D01*
X107529989Y-143142034D01*
X107381980Y-143019129D01*
X107244688Y-142894695D01*
X107242484Y-142892596D01*
X107107402Y-142757514D01*
X107105314Y-142755321D01*
X106980867Y-142618016D01*
X106857957Y-142470001D01*
X106855897Y-142467377D01*
X106745559Y-142318603D01*
X106636995Y-142160118D01*
X106634966Y-142156954D01*
X106539778Y-141998142D01*
X106512261Y-141948740D01*
X106446457Y-141830601D01*
X106444588Y-141826964D01*
X106420852Y-141776779D01*
X106365370Y-141659474D01*
X106288100Y-141484471D01*
X106286450Y-141480339D01*
X106223906Y-141305540D01*
X106163327Y-141124797D01*
X106161989Y-141120221D01*
X106116675Y-140939315D01*
X106111402Y-140916895D01*
X106073294Y-140754871D01*
X106072329Y-140749828D01*
X106044662Y-140563310D01*
X106018819Y-140378048D01*
X106018302Y-140372549D01*
X106008487Y-140172761D01*
X106003633Y-140067763D01*
X108145787Y-140067763D01*
X108175413Y-140337013D01*
X108175415Y-140337024D01*
X108234564Y-140563270D01*
X108243928Y-140599088D01*
X108349870Y-140848390D01*
X108421998Y-140966575D01*
X108490979Y-141079605D01*
X108490986Y-141079615D01*
X108664253Y-141287819D01*
X108664259Y-141287824D01*
X108769240Y-141381887D01*
X108865998Y-141468582D01*
X109091910Y-141618044D01*
X109337176Y-141733020D01*
X109337183Y-141733022D01*
X109337185Y-141733023D01*
X109596557Y-141811057D01*
X109596564Y-141811058D01*
X109596569Y-141811060D01*
X109864561Y-141850500D01*
X109864566Y-141850500D01*
X110067636Y-141850500D01*
X110119133Y-141846730D01*
X110270156Y-141835677D01*
X110382758Y-141810593D01*
X110534546Y-141776782D01*
X110534548Y-141776781D01*
X110534553Y-141776780D01*
X110787558Y-141680014D01*
X111023777Y-141547441D01*
X111238177Y-141381888D01*
X111426186Y-141186881D01*
X111583799Y-140966579D01*
X111692626Y-140754909D01*
X111707649Y-140725690D01*
X111707651Y-140725684D01*
X111707656Y-140725675D01*
X111795118Y-140469305D01*
X111844319Y-140202933D01*
X111849259Y-140067763D01*
X198145787Y-140067763D01*
X198175413Y-140337013D01*
X198175415Y-140337024D01*
X198234564Y-140563270D01*
X198243928Y-140599088D01*
X198349870Y-140848390D01*
X198421998Y-140966575D01*
X198490979Y-141079605D01*
X198490986Y-141079615D01*
X198664253Y-141287819D01*
X198664259Y-141287824D01*
X198769240Y-141381887D01*
X198865998Y-141468582D01*
X199091910Y-141618044D01*
X199337176Y-141733020D01*
X199337183Y-141733022D01*
X199337185Y-141733023D01*
X199596557Y-141811057D01*
X199596564Y-141811058D01*
X199596569Y-141811060D01*
X199864561Y-141850500D01*
X199864566Y-141850500D01*
X200067636Y-141850500D01*
X200119133Y-141846730D01*
X200270156Y-141835677D01*
X200382758Y-141810593D01*
X200534546Y-141776782D01*
X200534548Y-141776781D01*
X200534553Y-141776780D01*
X200787558Y-141680014D01*
X201023777Y-141547441D01*
X201238177Y-141381888D01*
X201426186Y-141186881D01*
X201583799Y-140966579D01*
X201692626Y-140754909D01*
X201707649Y-140725690D01*
X201707651Y-140725684D01*
X201707656Y-140725675D01*
X201795118Y-140469305D01*
X201844319Y-140202933D01*
X201854212Y-139932235D01*
X201824586Y-139662982D01*
X201756072Y-139400912D01*
X201650130Y-139151610D01*
X201509018Y-138920390D01*
X201419747Y-138813119D01*
X201335746Y-138712180D01*
X201335740Y-138712175D01*
X201134002Y-138531418D01*
X200908092Y-138381957D01*
X200908090Y-138381956D01*
X200662824Y-138266980D01*
X200662819Y-138266978D01*
X200662814Y-138266976D01*
X200403442Y-138188942D01*
X200403428Y-138188939D01*
X200287791Y-138171921D01*
X200135439Y-138149500D01*
X199932369Y-138149500D01*
X199932364Y-138149500D01*
X199729844Y-138164323D01*
X199729831Y-138164325D01*
X199465453Y-138223217D01*
X199465446Y-138223220D01*
X199212439Y-138319987D01*
X198976226Y-138452557D01*
X198761822Y-138618112D01*
X198573822Y-138813109D01*
X198573816Y-138813116D01*
X198416202Y-139033419D01*
X198416199Y-139033424D01*
X198292350Y-139274309D01*
X198292343Y-139274327D01*
X198204884Y-139530685D01*
X198204881Y-139530699D01*
X198155681Y-139797068D01*
X198155680Y-139797075D01*
X198145787Y-140067763D01*
X111849259Y-140067763D01*
X111854212Y-139932235D01*
X111824586Y-139662982D01*
X111756072Y-139400912D01*
X111650130Y-139151610D01*
X111509018Y-138920390D01*
X111419747Y-138813119D01*
X111335746Y-138712180D01*
X111335740Y-138712175D01*
X111134002Y-138531418D01*
X110908092Y-138381957D01*
X110908090Y-138381956D01*
X110662824Y-138266980D01*
X110662819Y-138266978D01*
X110662814Y-138266976D01*
X110403442Y-138188942D01*
X110403428Y-138188939D01*
X110287791Y-138171921D01*
X110135439Y-138149500D01*
X109932369Y-138149500D01*
X109932364Y-138149500D01*
X109729844Y-138164323D01*
X109729831Y-138164325D01*
X109465453Y-138223217D01*
X109465446Y-138223220D01*
X109212439Y-138319987D01*
X108976226Y-138452557D01*
X108761822Y-138618112D01*
X108573822Y-138813109D01*
X108573816Y-138813116D01*
X108416202Y-139033419D01*
X108416199Y-139033424D01*
X108292350Y-139274309D01*
X108292343Y-139274327D01*
X108204884Y-139530685D01*
X108204881Y-139530699D01*
X108155681Y-139797068D01*
X108155680Y-139797075D01*
X108145787Y-140067763D01*
X106003633Y-140067763D01*
X106000566Y-140001423D01*
X106000500Y-139998560D01*
X106000500Y-139948647D01*
X106000452Y-139948203D01*
X105994370Y-133275870D01*
X116171500Y-133275870D01*
X116171501Y-133275876D01*
X116177908Y-133335483D01*
X116228202Y-133470328D01*
X116228206Y-133470335D01*
X116314452Y-133585544D01*
X116314455Y-133585547D01*
X116429664Y-133671793D01*
X116429671Y-133671797D01*
X116564517Y-133722091D01*
X116564516Y-133722091D01*
X116571444Y-133722835D01*
X116624127Y-133728500D01*
X118719872Y-133728499D01*
X118779483Y-133722091D01*
X118914331Y-133671796D01*
X119029546Y-133585546D01*
X119115796Y-133470331D01*
X119166091Y-133335483D01*
X119172500Y-133275873D01*
X119172499Y-132280128D01*
X119166091Y-132220517D01*
X119115796Y-132085669D01*
X119115795Y-132085668D01*
X119115793Y-132085664D01*
X119029547Y-131970455D01*
X119029544Y-131970452D01*
X118914335Y-131884206D01*
X118914328Y-131884202D01*
X118779482Y-131833908D01*
X118779483Y-131833908D01*
X118719883Y-131827501D01*
X118719881Y-131827500D01*
X118719873Y-131827500D01*
X118719864Y-131827500D01*
X116624129Y-131827500D01*
X116624123Y-131827501D01*
X116564516Y-131833908D01*
X116429671Y-131884202D01*
X116429664Y-131884206D01*
X116314455Y-131970452D01*
X116314452Y-131970455D01*
X116228206Y-132085664D01*
X116228202Y-132085671D01*
X116177908Y-132220517D01*
X116171501Y-132280116D01*
X116171501Y-132280123D01*
X116171500Y-132280135D01*
X116171500Y-133275870D01*
X105994370Y-133275870D01*
X105987933Y-126214330D01*
X160335710Y-126214330D01*
X160365925Y-126437387D01*
X160365926Y-126437390D01*
X160435483Y-126651465D01*
X160542146Y-126849678D01*
X160542148Y-126849681D01*
X160682489Y-127025663D01*
X160682491Y-127025664D01*
X160682492Y-127025666D01*
X160852004Y-127173765D01*
X161045236Y-127289215D01*
X161252944Y-127367169D01*
X161255976Y-127368307D01*
X161477450Y-127408500D01*
X161477453Y-127408500D01*
X162986636Y-127408500D01*
X163006034Y-127410026D01*
X163034340Y-127414510D01*
X163058396Y-127413969D01*
X163066712Y-127414343D01*
X163090627Y-127417038D01*
X163173562Y-127411445D01*
X163176253Y-127411324D01*
X163259378Y-127409460D01*
X163282959Y-127404631D01*
X163291213Y-127403513D01*
X163315212Y-127401896D01*
X163315217Y-127401894D01*
X163320722Y-127401023D01*
X163320735Y-127401106D01*
X163336276Y-127398644D01*
X163344412Y-127398096D01*
X163348648Y-127397028D01*
X163367841Y-127393767D01*
X163372188Y-127393377D01*
X163428453Y-127377848D01*
X163467148Y-127367169D01*
X163469840Y-127366490D01*
X163471104Y-127366171D01*
X163473793Y-127365557D01*
X163479896Y-127364308D01*
X163479912Y-127364301D01*
X163485815Y-127362529D01*
X163488487Y-127361791D01*
X163562683Y-127343096D01*
X163566655Y-127341291D01*
X163584962Y-127334654D01*
X163589170Y-127333493D01*
X163677935Y-127290746D01*
X163767626Y-127250007D01*
X163771220Y-127247516D01*
X163788035Y-127237724D01*
X163791973Y-127235829D01*
X163871676Y-127177921D01*
X163952654Y-127121820D01*
X163955741Y-127118733D01*
X163970544Y-127106089D01*
X163974078Y-127103522D01*
X164042151Y-127032322D01*
X165170128Y-125904345D01*
X165175296Y-125899726D01*
X165205666Y-125875508D01*
X165250638Y-125824031D01*
X165253455Y-125821018D01*
X165261945Y-125812530D01*
X165288964Y-125780165D01*
X165353765Y-125705996D01*
X165356004Y-125702248D01*
X165367265Y-125686375D01*
X165370068Y-125683019D01*
X165418683Y-125597340D01*
X165469215Y-125512764D01*
X165470747Y-125508679D01*
X165479003Y-125491033D01*
X165481153Y-125487245D01*
X165513692Y-125394253D01*
X165548307Y-125302024D01*
X165549085Y-125297737D01*
X165554056Y-125278902D01*
X165555498Y-125274783D01*
X165570910Y-125177472D01*
X165588500Y-125080547D01*
X165588500Y-125076168D01*
X165590027Y-125056770D01*
X165590710Y-125052460D01*
X165588500Y-124953997D01*
X165588500Y-79309335D01*
X165589970Y-79304330D01*
X166639710Y-79304330D01*
X166669925Y-79527387D01*
X166669926Y-79527390D01*
X166739483Y-79741465D01*
X166846146Y-79939678D01*
X166846148Y-79939681D01*
X166986489Y-80115663D01*
X166986491Y-80115664D01*
X166986492Y-80115666D01*
X167156004Y-80263765D01*
X167349236Y-80379215D01*
X167559976Y-80458307D01*
X167781450Y-80498500D01*
X167781453Y-80498500D01*
X169356664Y-80498500D01*
X169423703Y-80518185D01*
X169444345Y-80534819D01*
X169531981Y-80622455D01*
X169565466Y-80683778D01*
X169568300Y-80710136D01*
X169568300Y-80914251D01*
X169548615Y-80981290D01*
X169531981Y-81001932D01*
X167569885Y-82964028D01*
X167564699Y-82968663D01*
X167534337Y-82992877D01*
X167534333Y-82992881D01*
X167489365Y-83044349D01*
X167486521Y-83047392D01*
X167478064Y-83055850D01*
X167478054Y-83055861D01*
X167451049Y-83088207D01*
X167386234Y-83162393D01*
X167386230Y-83162399D01*
X167383981Y-83166163D01*
X167372746Y-83181997D01*
X167369934Y-83185366D01*
X167369932Y-83185370D01*
X167321316Y-83271048D01*
X167293321Y-83317903D01*
X167270783Y-83355627D01*
X167269247Y-83359721D01*
X167261008Y-83377334D01*
X167258850Y-83381136D01*
X167258846Y-83381146D01*
X167226307Y-83474135D01*
X167191694Y-83566359D01*
X167191689Y-83566377D01*
X167190909Y-83570677D01*
X167185952Y-83589458D01*
X167184503Y-83593598D01*
X167184502Y-83593604D01*
X167169089Y-83690916D01*
X167151500Y-83787837D01*
X167151500Y-83792216D01*
X167149973Y-83811618D01*
X167149289Y-83815929D01*
X167151500Y-83914410D01*
X167151500Y-120068293D01*
X167151110Y-120075231D01*
X167148792Y-120095804D01*
X167146762Y-120113823D01*
X167146761Y-120113831D01*
X167151359Y-120182013D01*
X167151500Y-120186186D01*
X167151500Y-120198156D01*
X167155277Y-120240124D01*
X167161903Y-120338407D01*
X167161903Y-120338412D01*
X167162972Y-120342652D01*
X167166230Y-120361824D01*
X167166623Y-120366190D01*
X167192835Y-120461165D01*
X167216903Y-120556681D01*
X167218715Y-120560670D01*
X167225340Y-120578944D01*
X167226504Y-120583162D01*
X167226507Y-120583170D01*
X167269253Y-120671935D01*
X167309993Y-120761626D01*
X167309994Y-120761629D01*
X167312483Y-120765221D01*
X167322269Y-120782026D01*
X167324166Y-120785965D01*
X167324174Y-120785979D01*
X167382078Y-120865676D01*
X167438180Y-120946655D01*
X167441273Y-120949748D01*
X167453907Y-120964539D01*
X167456478Y-120968078D01*
X167456481Y-120968081D01*
X167527679Y-121036153D01*
X176873642Y-130382116D01*
X176878279Y-130387304D01*
X176902492Y-130417666D01*
X176953967Y-130462639D01*
X176957000Y-130465474D01*
X176965470Y-130473944D01*
X176991316Y-130495522D01*
X176997814Y-130500947D01*
X177072004Y-130565765D01*
X177075750Y-130568003D01*
X177091624Y-130579265D01*
X177094981Y-130582068D01*
X177180659Y-130630683D01*
X177265236Y-130681215D01*
X177269327Y-130682750D01*
X177286955Y-130690996D01*
X177290755Y-130693153D01*
X177383746Y-130725692D01*
X177475976Y-130760307D01*
X177478565Y-130760776D01*
X177480274Y-130761087D01*
X177499089Y-130766053D01*
X177503217Y-130767498D01*
X177600526Y-130782910D01*
X177600527Y-130782910D01*
X177697450Y-130800500D01*
X177697453Y-130800500D01*
X177701828Y-130800500D01*
X177721231Y-130802028D01*
X177722938Y-130802297D01*
X177725540Y-130802710D01*
X177824002Y-130800500D01*
X178089155Y-130800500D01*
X178257188Y-130785377D01*
X178266127Y-130782910D01*
X178474160Y-130725496D01*
X178474162Y-130725495D01*
X178474170Y-130725493D01*
X178676973Y-130627829D01*
X178859078Y-130495522D01*
X179014632Y-130332825D01*
X179138635Y-130144968D01*
X179227103Y-129937988D01*
X179277191Y-129718537D01*
X179287290Y-129493670D01*
X179257075Y-129270613D01*
X179187517Y-129056536D01*
X179080852Y-128858319D01*
X178940508Y-128682334D01*
X178770996Y-128534235D01*
X178577764Y-128418785D01*
X178393982Y-128349810D01*
X178349872Y-128321398D01*
X171830345Y-121801870D01*
X200079500Y-121801870D01*
X200079501Y-121801876D01*
X200085908Y-121861483D01*
X200136202Y-121996328D01*
X200136206Y-121996335D01*
X200222452Y-122111544D01*
X200222455Y-122111547D01*
X200337664Y-122197793D01*
X200337671Y-122197797D01*
X200472517Y-122248091D01*
X200472516Y-122248091D01*
X200479444Y-122248835D01*
X200532127Y-122254500D01*
X202627872Y-122254499D01*
X202687483Y-122248091D01*
X202822331Y-122197796D01*
X202937546Y-122111546D01*
X203023796Y-121996331D01*
X203074091Y-121861483D01*
X203080500Y-121801873D01*
X203080499Y-120806128D01*
X203074091Y-120746517D01*
X203058419Y-120704499D01*
X203023797Y-120611671D01*
X203023793Y-120611664D01*
X202937547Y-120496455D01*
X202937544Y-120496452D01*
X202822335Y-120410206D01*
X202822328Y-120410202D01*
X202687482Y-120359908D01*
X202687483Y-120359908D01*
X202627883Y-120353501D01*
X202627881Y-120353500D01*
X202627873Y-120353500D01*
X202627864Y-120353500D01*
X200532129Y-120353500D01*
X200532123Y-120353501D01*
X200472516Y-120359908D01*
X200337671Y-120410202D01*
X200337664Y-120410206D01*
X200222455Y-120496452D01*
X200222452Y-120496455D01*
X200136206Y-120611664D01*
X200136202Y-120611671D01*
X200085908Y-120746517D01*
X200081666Y-120785979D01*
X200079501Y-120806123D01*
X200079500Y-120806135D01*
X200079500Y-121801870D01*
X171830345Y-121801870D01*
X169688819Y-119660344D01*
X169655334Y-119599021D01*
X169652500Y-119572663D01*
X169652500Y-117058705D01*
X193029500Y-117058705D01*
X193029501Y-119249293D01*
X193039718Y-119394027D01*
X193039718Y-119394031D01*
X193039719Y-119394034D01*
X193039720Y-119394038D01*
X193093834Y-119634314D01*
X193093835Y-119634319D01*
X193150810Y-119775883D01*
X193185795Y-119862809D01*
X193313216Y-120073589D01*
X193349015Y-120115676D01*
X193472798Y-120261201D01*
X193581309Y-120353500D01*
X193660411Y-120420784D01*
X193871191Y-120548205D01*
X194099683Y-120640165D01*
X194339966Y-120694281D01*
X194484705Y-120704500D01*
X196675294Y-120704499D01*
X196820034Y-120694281D01*
X197060317Y-120640165D01*
X197288809Y-120548205D01*
X197499589Y-120420784D01*
X197687201Y-120261201D01*
X197846784Y-120073589D01*
X197974205Y-119862809D01*
X198066165Y-119634317D01*
X198120281Y-119394034D01*
X198130500Y-119249295D01*
X198130499Y-117058706D01*
X198120281Y-116913966D01*
X198066165Y-116673683D01*
X197974205Y-116445191D01*
X197846784Y-116234411D01*
X197780930Y-116156990D01*
X197687201Y-116046798D01*
X197557654Y-115936606D01*
X197499589Y-115887216D01*
X197288809Y-115759795D01*
X197288809Y-115759794D01*
X197060318Y-115667835D01*
X196820036Y-115613719D01*
X196820029Y-115613718D01*
X196675295Y-115603500D01*
X194484706Y-115603501D01*
X194468915Y-115604615D01*
X194339972Y-115613718D01*
X194339966Y-115613718D01*
X194339966Y-115613719D01*
X194339963Y-115613719D01*
X194339961Y-115613720D01*
X194099685Y-115667834D01*
X194099680Y-115667835D01*
X193871190Y-115759795D01*
X193871185Y-115759798D01*
X193660417Y-115887212D01*
X193660407Y-115887219D01*
X193472798Y-116046798D01*
X193313219Y-116234407D01*
X193313212Y-116234417D01*
X193185798Y-116445185D01*
X193185795Y-116445190D01*
X193093835Y-116673680D01*
X193093835Y-116673682D01*
X193039719Y-116913963D01*
X193039718Y-116913970D01*
X193029500Y-117058705D01*
X169652500Y-117058705D01*
X169652500Y-110954005D01*
X193024457Y-110954005D01*
X193044606Y-111274283D01*
X193044607Y-111274290D01*
X193104745Y-111589542D01*
X193203916Y-111894759D01*
X193203918Y-111894764D01*
X193340558Y-112185138D01*
X193340562Y-112185144D01*
X193512520Y-112456108D01*
X193512522Y-112456111D01*
X193717087Y-112703388D01*
X193951034Y-112923078D01*
X193951044Y-112923086D01*
X194210660Y-113111708D01*
X194210666Y-113111711D01*
X194210672Y-113111716D01*
X194491903Y-113266324D01*
X194790294Y-113384466D01*
X194790293Y-113384466D01*
X195101135Y-113464276D01*
X195101139Y-113464277D01*
X195167935Y-113472715D01*
X195419524Y-113504499D01*
X195419533Y-113504499D01*
X195419536Y-113504500D01*
X195419538Y-113504500D01*
X195740462Y-113504500D01*
X195740464Y-113504500D01*
X195740467Y-113504499D01*
X195740475Y-113504499D01*
X195930463Y-113480497D01*
X196058861Y-113464277D01*
X196369706Y-113384466D01*
X196668097Y-113266324D01*
X196949328Y-113111716D01*
X197208964Y-112923080D01*
X197442911Y-112703390D01*
X197647478Y-112456110D01*
X197819439Y-112185142D01*
X197956084Y-111894758D01*
X198055256Y-111589538D01*
X198115392Y-111274294D01*
X198135543Y-110954000D01*
X198115392Y-110633706D01*
X198055256Y-110318462D01*
X197956084Y-110013242D01*
X197956081Y-110013235D01*
X197819441Y-109722861D01*
X197819437Y-109722855D01*
X197647479Y-109451891D01*
X197647477Y-109451888D01*
X197442912Y-109204611D01*
X197208965Y-108984921D01*
X197208955Y-108984913D01*
X196949339Y-108796291D01*
X196949321Y-108796280D01*
X196668096Y-108641675D01*
X196668093Y-108641674D01*
X196381248Y-108528104D01*
X196369706Y-108523534D01*
X196369704Y-108523533D01*
X196369706Y-108523533D01*
X196058864Y-108443723D01*
X196058851Y-108443721D01*
X195740475Y-108403500D01*
X195740464Y-108403500D01*
X195419536Y-108403500D01*
X195419524Y-108403500D01*
X195101148Y-108443721D01*
X195101135Y-108443723D01*
X194790294Y-108523533D01*
X194491906Y-108641674D01*
X194491903Y-108641675D01*
X194210678Y-108796280D01*
X194210660Y-108796291D01*
X193951044Y-108984913D01*
X193951034Y-108984921D01*
X193717087Y-109204611D01*
X193512522Y-109451888D01*
X193512520Y-109451891D01*
X193340562Y-109722855D01*
X193340558Y-109722861D01*
X193203918Y-110013235D01*
X193203916Y-110013240D01*
X193104745Y-110318457D01*
X193044607Y-110633709D01*
X193044606Y-110633716D01*
X193024457Y-110953994D01*
X193024457Y-110954005D01*
X169652500Y-110954005D01*
X169652500Y-84469724D01*
X169672185Y-84402685D01*
X169688814Y-84382048D01*
X171650927Y-82419934D01*
X171656087Y-82415322D01*
X171686466Y-82391097D01*
X171731432Y-82339628D01*
X171734278Y-82336584D01*
X171742729Y-82328134D01*
X171742729Y-82328133D01*
X171742744Y-82328119D01*
X171769747Y-82295774D01*
X171834565Y-82221585D01*
X171836806Y-82217832D01*
X171848074Y-82201953D01*
X171850868Y-82198608D01*
X171899483Y-82112929D01*
X171950015Y-82028353D01*
X171951547Y-82024268D01*
X171959803Y-82006622D01*
X171961953Y-82002834D01*
X171994492Y-81909842D01*
X172029107Y-81817613D01*
X172029885Y-81813326D01*
X172034856Y-81794491D01*
X172036298Y-81790372D01*
X172051710Y-81693061D01*
X172069300Y-81596136D01*
X172069300Y-81591761D01*
X172070828Y-81572356D01*
X172071510Y-81568051D01*
X172069299Y-81469586D01*
X172069299Y-80914251D01*
X172069299Y-80214487D01*
X172069687Y-80207587D01*
X172074038Y-80168973D01*
X172073760Y-80164857D01*
X172070444Y-80115666D01*
X172069439Y-80100767D01*
X172069300Y-80096612D01*
X172069300Y-80084649D01*
X172069300Y-80084645D01*
X172065522Y-80042676D01*
X172058896Y-79944388D01*
X172057827Y-79940148D01*
X172054568Y-79920969D01*
X172054177Y-79916612D01*
X172027964Y-79821634D01*
X172003896Y-79726117D01*
X172002089Y-79722139D01*
X171995453Y-79703834D01*
X171994292Y-79699628D01*
X171951546Y-79610864D01*
X171910808Y-79521177D01*
X171910807Y-79521174D01*
X171908317Y-79517580D01*
X171898525Y-79500764D01*
X171896631Y-79496830D01*
X171838721Y-79417122D01*
X171782626Y-79336154D01*
X171782623Y-79336150D01*
X171782620Y-79336146D01*
X171779529Y-79333055D01*
X171766893Y-79318261D01*
X171764321Y-79314721D01*
X171764319Y-79314719D01*
X171693120Y-79246646D01*
X170862356Y-78415882D01*
X170857719Y-78410693D01*
X170833507Y-78380332D01*
X170782031Y-78335359D01*
X170778997Y-78332523D01*
X170770529Y-78324055D01*
X170769798Y-78323445D01*
X170738181Y-78297049D01*
X170664002Y-78232240D01*
X170663997Y-78232236D01*
X170663996Y-78232235D01*
X170660241Y-78229991D01*
X170644373Y-78218732D01*
X170641019Y-78215932D01*
X170641018Y-78215931D01*
X170641013Y-78215927D01*
X170573614Y-78177685D01*
X170555340Y-78167316D01*
X170470764Y-78116785D01*
X170470761Y-78116783D01*
X170466669Y-78115248D01*
X170449044Y-78107002D01*
X170445245Y-78104846D01*
X170352253Y-78072307D01*
X170260029Y-78037694D01*
X170260019Y-78037691D01*
X170255723Y-78036912D01*
X170236918Y-78031949D01*
X170232784Y-78030502D01*
X170232779Y-78030501D01*
X170135472Y-78015089D01*
X170038550Y-77997500D01*
X170038547Y-77997500D01*
X170034172Y-77997500D01*
X170014769Y-77995972D01*
X170010460Y-77995289D01*
X169911978Y-77997500D01*
X167837845Y-77997500D01*
X167799399Y-78000960D01*
X167669813Y-78012622D01*
X167669807Y-78012623D01*
X167452839Y-78072503D01*
X167452826Y-78072508D01*
X167250033Y-78170167D01*
X167250025Y-78170171D01*
X167067927Y-78302473D01*
X167067925Y-78302474D01*
X166912366Y-78465176D01*
X166788363Y-78653033D01*
X166699899Y-78860004D01*
X166699895Y-78860017D01*
X166649810Y-79079457D01*
X166649808Y-79079468D01*
X166641792Y-79257973D01*
X166639710Y-79304330D01*
X165589970Y-79304330D01*
X165608185Y-79242296D01*
X165624819Y-79221654D01*
X167359655Y-77486819D01*
X167420978Y-77453334D01*
X167447336Y-77450500D01*
X169982148Y-77450500D01*
X169982155Y-77450500D01*
X170150188Y-77435377D01*
X170150192Y-77435376D01*
X170367160Y-77375496D01*
X170367162Y-77375495D01*
X170367170Y-77375493D01*
X170569973Y-77277829D01*
X170752078Y-77145522D01*
X170907632Y-76982825D01*
X171031635Y-76794968D01*
X171120103Y-76587988D01*
X171170191Y-76368537D01*
X171180290Y-76143670D01*
X171150075Y-75920613D01*
X171080517Y-75706536D01*
X170973852Y-75508319D01*
X170833508Y-75332334D01*
X170663996Y-75184235D01*
X170470764Y-75068785D01*
X170327196Y-75014903D01*
X170260023Y-74989692D01*
X170038550Y-74949500D01*
X170038547Y-74949500D01*
X166951697Y-74949500D01*
X166944758Y-74949110D01*
X166917907Y-74946085D01*
X166906174Y-74944763D01*
X166906168Y-74944762D01*
X166860704Y-74947828D01*
X166837976Y-74949360D01*
X166833823Y-74949500D01*
X166821840Y-74949500D01*
X166779857Y-74953278D01*
X166681589Y-74959903D01*
X166677348Y-74960972D01*
X166658175Y-74964230D01*
X166653812Y-74964622D01*
X166653806Y-74964624D01*
X166558844Y-74990832D01*
X166463315Y-75014903D01*
X166463312Y-75014904D01*
X166459319Y-75016718D01*
X166441059Y-75023338D01*
X166436850Y-75024500D01*
X166436826Y-75024508D01*
X166348071Y-75067250D01*
X166258373Y-75107993D01*
X166258366Y-75107997D01*
X166254772Y-75110487D01*
X166237978Y-75120267D01*
X166234033Y-75122167D01*
X166234027Y-75122170D01*
X166154318Y-75180082D01*
X166073348Y-75236178D01*
X166073342Y-75236183D01*
X166070239Y-75239286D01*
X166055465Y-75251903D01*
X166051928Y-75254473D01*
X166051921Y-75254478D01*
X165983846Y-75325679D01*
X163505885Y-77803639D01*
X163500699Y-77808274D01*
X163470337Y-77832488D01*
X163470333Y-77832492D01*
X163425365Y-77883960D01*
X163422521Y-77887003D01*
X163414064Y-77895461D01*
X163414054Y-77895472D01*
X163387049Y-77927818D01*
X163322234Y-78002004D01*
X163322230Y-78002010D01*
X163319981Y-78005774D01*
X163308746Y-78021608D01*
X163305934Y-78024977D01*
X163305932Y-78024981D01*
X163257316Y-78110659D01*
X163229321Y-78157514D01*
X163206783Y-78195238D01*
X163205247Y-78199332D01*
X163197008Y-78216945D01*
X163194850Y-78220747D01*
X163194846Y-78220757D01*
X163162307Y-78313746D01*
X163127694Y-78405970D01*
X163127689Y-78405988D01*
X163126909Y-78410288D01*
X163121952Y-78429069D01*
X163120503Y-78433209D01*
X163120502Y-78433215D01*
X163105089Y-78530528D01*
X163086507Y-78632921D01*
X163055169Y-78695368D01*
X162995044Y-78730959D01*
X162925221Y-78728395D01*
X162867869Y-78688488D01*
X162841197Y-78623910D01*
X162840500Y-78610780D01*
X162840500Y-69652330D01*
X166639710Y-69652330D01*
X166669925Y-69875387D01*
X166669926Y-69875390D01*
X166739483Y-70089465D01*
X166846146Y-70287678D01*
X166846148Y-70287681D01*
X166986489Y-70463663D01*
X166986491Y-70463664D01*
X166986492Y-70463666D01*
X167156004Y-70611765D01*
X167349236Y-70727215D01*
X167559976Y-70806307D01*
X167781450Y-70846500D01*
X167781453Y-70846500D01*
X169813453Y-70846500D01*
X179770664Y-70846500D01*
X179837703Y-70866185D01*
X179858345Y-70882819D01*
X181346181Y-72370655D01*
X181379666Y-72431978D01*
X181382500Y-72458336D01*
X181382500Y-80567889D01*
X181362815Y-80634928D01*
X181310011Y-80680683D01*
X181240853Y-80690627D01*
X181177297Y-80661602D01*
X181151113Y-80629889D01*
X181115317Y-80567889D01*
X181072533Y-80493784D01*
X180945871Y-80353112D01*
X180945870Y-80353111D01*
X180792734Y-80241851D01*
X180792729Y-80241848D01*
X180619807Y-80164857D01*
X180619802Y-80164855D01*
X180474000Y-80133865D01*
X180434646Y-80125500D01*
X180245354Y-80125500D01*
X180212897Y-80132398D01*
X180060197Y-80164855D01*
X180060192Y-80164857D01*
X179887270Y-80241848D01*
X179887265Y-80241851D01*
X179734129Y-80353111D01*
X179607466Y-80493785D01*
X179512821Y-80657715D01*
X179512818Y-80657722D01*
X179454327Y-80837740D01*
X179454326Y-80837744D01*
X179434540Y-81026000D01*
X179454326Y-81214256D01*
X179454327Y-81214259D01*
X179512818Y-81394277D01*
X179512820Y-81394281D01*
X179512821Y-81394284D01*
X179554111Y-81465800D01*
X179572887Y-81498322D01*
X179589499Y-81560321D01*
X179589500Y-82919251D01*
X179586157Y-82947848D01*
X179582499Y-82963280D01*
X179581661Y-82970453D01*
X179581601Y-82970446D01*
X179580835Y-82977945D01*
X179580895Y-82977951D01*
X179580265Y-82985140D01*
X179582500Y-83061916D01*
X179582500Y-107307677D01*
X179565887Y-107369677D01*
X179505821Y-107473714D01*
X179447327Y-107653740D01*
X179447326Y-107653744D01*
X179427540Y-107842000D01*
X179447326Y-108030256D01*
X179447327Y-108030259D01*
X179505818Y-108210277D01*
X179505821Y-108210284D01*
X179600467Y-108374216D01*
X179710420Y-108496331D01*
X179727129Y-108514888D01*
X179880265Y-108626148D01*
X179880270Y-108626151D01*
X180053192Y-108703142D01*
X180053197Y-108703144D01*
X180238354Y-108742500D01*
X180238355Y-108742500D01*
X180427644Y-108742500D01*
X180427646Y-108742500D01*
X180612803Y-108703144D01*
X180785730Y-108626151D01*
X180938871Y-108514888D01*
X181065533Y-108374216D01*
X181107302Y-108301870D01*
X200079500Y-108301870D01*
X200079501Y-108301876D01*
X200085908Y-108361483D01*
X200136202Y-108496328D01*
X200136206Y-108496335D01*
X200222452Y-108611544D01*
X200222455Y-108611547D01*
X200337664Y-108697793D01*
X200337671Y-108697797D01*
X200472517Y-108748091D01*
X200472516Y-108748091D01*
X200479444Y-108748835D01*
X200532127Y-108754500D01*
X202627872Y-108754499D01*
X202687483Y-108748091D01*
X202822331Y-108697796D01*
X202937546Y-108611546D01*
X203023796Y-108496331D01*
X203074091Y-108361483D01*
X203080500Y-108301873D01*
X203080499Y-107306128D01*
X203074091Y-107246517D01*
X203023796Y-107111669D01*
X203023795Y-107111668D01*
X203023793Y-107111664D01*
X202937547Y-106996455D01*
X202937544Y-106996452D01*
X202822335Y-106910206D01*
X202822328Y-106910202D01*
X202687482Y-106859908D01*
X202687483Y-106859908D01*
X202627883Y-106853501D01*
X202627881Y-106853500D01*
X202627873Y-106853500D01*
X202627864Y-106853500D01*
X200532129Y-106853500D01*
X200532123Y-106853501D01*
X200472516Y-106859908D01*
X200337671Y-106910202D01*
X200337664Y-106910206D01*
X200222455Y-106996452D01*
X200222452Y-106996455D01*
X200136206Y-107111664D01*
X200136202Y-107111671D01*
X200085908Y-107246517D01*
X200079501Y-107306116D01*
X200079501Y-107306123D01*
X200079500Y-107306135D01*
X200079500Y-108301870D01*
X181107302Y-108301870D01*
X181160179Y-108210284D01*
X181218674Y-108030256D01*
X181238460Y-107842000D01*
X181218674Y-107653744D01*
X181160179Y-107473716D01*
X181141336Y-107441078D01*
X181100113Y-107369677D01*
X181083500Y-107307677D01*
X181083500Y-83175748D01*
X181086843Y-83147149D01*
X181090500Y-83131721D01*
X181090500Y-83131714D01*
X181091338Y-83124548D01*
X181091397Y-83124554D01*
X181092164Y-83117056D01*
X181092104Y-83117051D01*
X181092733Y-83109860D01*
X181090500Y-83033103D01*
X181090500Y-81560321D01*
X181107113Y-81498321D01*
X181123703Y-81469586D01*
X181151114Y-81422108D01*
X181201679Y-81373895D01*
X181270286Y-81360671D01*
X181335151Y-81386639D01*
X181375680Y-81443553D01*
X181382500Y-81484110D01*
X181382500Y-95351633D01*
X181380973Y-95371030D01*
X181373289Y-95419541D01*
X181373828Y-95443584D01*
X181373454Y-95451921D01*
X181370762Y-95475822D01*
X181370761Y-95475831D01*
X181376350Y-95558711D01*
X181376475Y-95561490D01*
X181378340Y-95644578D01*
X181379980Y-95652588D01*
X181382500Y-95677461D01*
X181382500Y-97129633D01*
X181380973Y-97149030D01*
X181373289Y-97197541D01*
X181373828Y-97221584D01*
X181373454Y-97229921D01*
X181370762Y-97253822D01*
X181370761Y-97253831D01*
X181376350Y-97336711D01*
X181376475Y-97339490D01*
X181378340Y-97422578D01*
X181379980Y-97430588D01*
X181382500Y-97455461D01*
X181382499Y-99398147D01*
X181382500Y-99398151D01*
X181397622Y-99566186D01*
X181397623Y-99566192D01*
X181457503Y-99783160D01*
X181457508Y-99783173D01*
X181555167Y-99985966D01*
X181555171Y-99985974D01*
X181687473Y-100168072D01*
X181687474Y-100168074D01*
X181687477Y-100168077D01*
X181687478Y-100168078D01*
X181695467Y-100175716D01*
X181850176Y-100323633D01*
X182038033Y-100447636D01*
X182245004Y-100536100D01*
X182245007Y-100536101D01*
X182245012Y-100536103D01*
X182464463Y-100586191D01*
X182689330Y-100596290D01*
X182912387Y-100566075D01*
X183126464Y-100496517D01*
X183324681Y-100389852D01*
X183500666Y-100249508D01*
X183648765Y-100079996D01*
X183764215Y-99886764D01*
X183843307Y-99676024D01*
X183865227Y-99555240D01*
X183883500Y-99454549D01*
X183883500Y-97383172D01*
X183885028Y-97363769D01*
X183885709Y-97359466D01*
X183885710Y-97359460D01*
X183885431Y-97347069D01*
X183885805Y-97338752D01*
X183888237Y-97317172D01*
X183883639Y-97248976D01*
X183883500Y-97244821D01*
X183883500Y-95605172D01*
X183885028Y-95585769D01*
X183885709Y-95581466D01*
X183885710Y-95581460D01*
X183885431Y-95569069D01*
X183885805Y-95560752D01*
X183888237Y-95539172D01*
X183883639Y-95470976D01*
X183883500Y-95466821D01*
X183883500Y-71962706D01*
X183883889Y-71955767D01*
X183888238Y-71917173D01*
X183883639Y-71848962D01*
X183883500Y-71844807D01*
X183883500Y-71832852D01*
X183883500Y-71832845D01*
X183879725Y-71790901D01*
X183873097Y-71692588D01*
X183872028Y-71688345D01*
X183868768Y-71669155D01*
X183868377Y-71664813D01*
X183842169Y-71569852D01*
X183819176Y-71478604D01*
X183818096Y-71474317D01*
X183816289Y-71470339D01*
X183809653Y-71452034D01*
X183808493Y-71447830D01*
X183808492Y-71447827D01*
X183765741Y-71359055D01*
X183725007Y-71269375D01*
X183722518Y-71265782D01*
X183712728Y-71248970D01*
X183710829Y-71245027D01*
X183710827Y-71245024D01*
X183710825Y-71245020D01*
X183660652Y-71175965D01*
X183652914Y-71165314D01*
X183596820Y-71084346D01*
X183593729Y-71081255D01*
X183581093Y-71066461D01*
X183578521Y-71062921D01*
X183578519Y-71062919D01*
X183507320Y-70994846D01*
X181276356Y-68763882D01*
X181271719Y-68758693D01*
X181247507Y-68728332D01*
X181196031Y-68683359D01*
X181192997Y-68680523D01*
X181184529Y-68672055D01*
X181152181Y-68645049D01*
X181077996Y-68580235D01*
X181074241Y-68577991D01*
X181058373Y-68566732D01*
X181055019Y-68563932D01*
X181055018Y-68563931D01*
X181055013Y-68563927D01*
X180984706Y-68524035D01*
X180969340Y-68515316D01*
X180884764Y-68464785D01*
X180884761Y-68464783D01*
X180880669Y-68463248D01*
X180863044Y-68455002D01*
X180859245Y-68452846D01*
X180766253Y-68420307D01*
X180674029Y-68385694D01*
X180674019Y-68385691D01*
X180669723Y-68384912D01*
X180650918Y-68379949D01*
X180646784Y-68378502D01*
X180646779Y-68378501D01*
X180549472Y-68363089D01*
X180452550Y-68345500D01*
X180452547Y-68345500D01*
X180448172Y-68345500D01*
X180428769Y-68343972D01*
X180424460Y-68343289D01*
X180325978Y-68345500D01*
X170038547Y-68345500D01*
X167837845Y-68345500D01*
X167799399Y-68348960D01*
X167669813Y-68360622D01*
X167669807Y-68360623D01*
X167452839Y-68420503D01*
X167452826Y-68420508D01*
X167250033Y-68518167D01*
X167250025Y-68518171D01*
X167067927Y-68650473D01*
X167067925Y-68650474D01*
X166912366Y-68813176D01*
X166788363Y-69001033D01*
X166699899Y-69208004D01*
X166699895Y-69208017D01*
X166649810Y-69427457D01*
X166649808Y-69427468D01*
X166640085Y-69643973D01*
X166639710Y-69652330D01*
X162840500Y-69652330D01*
X162840500Y-68341336D01*
X162860185Y-68274297D01*
X162876819Y-68253655D01*
X163295655Y-67834819D01*
X163356978Y-67801334D01*
X163383336Y-67798500D01*
X169982148Y-67798500D01*
X169982155Y-67798500D01*
X170150188Y-67783377D01*
X170150192Y-67783376D01*
X170367160Y-67723496D01*
X170367162Y-67723495D01*
X170367170Y-67723493D01*
X170569973Y-67625829D01*
X170752078Y-67493522D01*
X170907632Y-67330825D01*
X171031635Y-67142968D01*
X171120103Y-66935988D01*
X171170191Y-66716537D01*
X171180290Y-66491670D01*
X171150075Y-66268613D01*
X171080517Y-66054536D01*
X170973852Y-65856319D01*
X170904485Y-65769336D01*
X170833510Y-65680336D01*
X170833508Y-65680334D01*
X170663996Y-65532235D01*
X170470764Y-65416785D01*
X170327196Y-65362903D01*
X170260023Y-65337692D01*
X170038550Y-65297500D01*
X170038547Y-65297500D01*
X162887697Y-65297500D01*
X162880758Y-65297110D01*
X162853907Y-65294085D01*
X162842174Y-65292763D01*
X162842168Y-65292762D01*
X162796704Y-65295828D01*
X162773976Y-65297360D01*
X162769823Y-65297500D01*
X162757840Y-65297500D01*
X162715857Y-65301278D01*
X162617589Y-65307903D01*
X162613348Y-65308972D01*
X162594175Y-65312230D01*
X162589812Y-65312622D01*
X162589806Y-65312624D01*
X162494844Y-65338832D01*
X162399315Y-65362903D01*
X162399312Y-65362904D01*
X162395319Y-65364718D01*
X162377059Y-65371338D01*
X162372850Y-65372500D01*
X162372826Y-65372508D01*
X162284071Y-65415250D01*
X162194373Y-65455993D01*
X162194366Y-65455997D01*
X162190772Y-65458487D01*
X162173978Y-65468267D01*
X162170033Y-65470167D01*
X162170027Y-65470170D01*
X162090318Y-65528082D01*
X162009348Y-65584178D01*
X162009342Y-65584183D01*
X162006239Y-65587286D01*
X161991465Y-65599903D01*
X161987928Y-65602473D01*
X161987921Y-65602478D01*
X161919846Y-65673679D01*
X160757885Y-66835639D01*
X160752699Y-66840274D01*
X160722337Y-66864488D01*
X160722333Y-66864492D01*
X160677365Y-66915960D01*
X160674521Y-66919003D01*
X160666064Y-66927461D01*
X160666054Y-66927472D01*
X160639049Y-66959818D01*
X160574234Y-67034004D01*
X160574230Y-67034010D01*
X160571981Y-67037774D01*
X160560746Y-67053608D01*
X160557934Y-67056977D01*
X160557932Y-67056981D01*
X160509316Y-67142659D01*
X160481321Y-67189514D01*
X160458783Y-67227238D01*
X160457247Y-67231332D01*
X160449008Y-67248945D01*
X160446850Y-67252747D01*
X160446846Y-67252757D01*
X160414307Y-67345746D01*
X160379694Y-67437970D01*
X160379689Y-67437988D01*
X160378909Y-67442288D01*
X160373952Y-67461069D01*
X160372503Y-67465209D01*
X160372502Y-67465215D01*
X160357089Y-67562527D01*
X160339500Y-67659448D01*
X160339500Y-67663827D01*
X160337973Y-67683229D01*
X160337289Y-67687540D01*
X160339500Y-67786021D01*
X160339500Y-107390151D01*
X160354622Y-107558186D01*
X160354623Y-107558192D01*
X160414503Y-107775160D01*
X160414508Y-107775173D01*
X160512167Y-107977966D01*
X160512171Y-107977974D01*
X160644473Y-108160072D01*
X160644474Y-108160074D01*
X160644477Y-108160077D01*
X160644478Y-108160078D01*
X160729647Y-108241508D01*
X160807176Y-108315633D01*
X160995033Y-108439636D01*
X161202004Y-108528100D01*
X161202007Y-108528101D01*
X161202012Y-108528103D01*
X161421463Y-108578191D01*
X161646330Y-108588290D01*
X161869387Y-108558075D01*
X162083464Y-108488517D01*
X162281681Y-108381852D01*
X162457666Y-108241508D01*
X162605765Y-108071996D01*
X162721215Y-107878764D01*
X162800307Y-107668024D01*
X162820240Y-107558186D01*
X162841493Y-107441078D01*
X162872832Y-107378631D01*
X162932957Y-107343040D01*
X163002780Y-107345606D01*
X163060131Y-107385513D01*
X163086803Y-107450091D01*
X163087500Y-107463220D01*
X163087500Y-124398663D01*
X163067815Y-124465702D01*
X163051181Y-124486344D01*
X162666345Y-124871181D01*
X162605022Y-124904666D01*
X162578664Y-124907500D01*
X161533845Y-124907500D01*
X161495399Y-124910960D01*
X161365813Y-124922622D01*
X161365807Y-124922623D01*
X161148839Y-124982503D01*
X161148826Y-124982508D01*
X160946033Y-125080167D01*
X160946025Y-125080171D01*
X160763927Y-125212473D01*
X160763925Y-125212474D01*
X160608366Y-125375176D01*
X160484363Y-125563033D01*
X160395899Y-125770004D01*
X160395895Y-125770017D01*
X160345810Y-125989457D01*
X160345808Y-125989468D01*
X160335710Y-126214325D01*
X160335710Y-126214330D01*
X105987933Y-126214330D01*
X105984482Y-122428005D01*
X121116457Y-122428005D01*
X121136606Y-122748283D01*
X121136607Y-122748290D01*
X121196745Y-123063542D01*
X121295916Y-123368759D01*
X121295918Y-123368764D01*
X121432558Y-123659138D01*
X121432562Y-123659144D01*
X121604520Y-123930108D01*
X121604522Y-123930111D01*
X121809087Y-124177388D01*
X122043034Y-124397078D01*
X122043044Y-124397086D01*
X122302660Y-124585708D01*
X122302666Y-124585711D01*
X122302672Y-124585716D01*
X122583903Y-124740324D01*
X122882294Y-124858466D01*
X122882293Y-124858466D01*
X123132166Y-124922622D01*
X123193139Y-124938277D01*
X123259935Y-124946715D01*
X123511524Y-124978499D01*
X123511533Y-124978499D01*
X123511536Y-124978500D01*
X123511538Y-124978500D01*
X123832462Y-124978500D01*
X123832464Y-124978500D01*
X123832467Y-124978499D01*
X123832475Y-124978499D01*
X124026425Y-124953997D01*
X124150861Y-124938277D01*
X124461706Y-124858466D01*
X124760097Y-124740324D01*
X125041328Y-124585716D01*
X125300964Y-124397080D01*
X125534911Y-124177390D01*
X125739478Y-123930110D01*
X125911439Y-123659142D01*
X126048084Y-123368758D01*
X126147256Y-123063538D01*
X126207392Y-122748294D01*
X126227543Y-122428000D01*
X126216627Y-122254500D01*
X126207393Y-122107716D01*
X126207392Y-122107709D01*
X126207392Y-122107706D01*
X126147256Y-121792462D01*
X126048084Y-121487242D01*
X126048081Y-121487235D01*
X125911441Y-121196861D01*
X125911437Y-121196855D01*
X125739479Y-120925891D01*
X125739477Y-120925888D01*
X125534912Y-120678611D01*
X125300965Y-120458921D01*
X125300955Y-120458913D01*
X125041339Y-120270291D01*
X125041321Y-120270280D01*
X124760096Y-120115675D01*
X124760093Y-120115674D01*
X124461703Y-119997533D01*
X124461706Y-119997533D01*
X124150864Y-119917723D01*
X124150851Y-119917721D01*
X123832475Y-119877500D01*
X123832464Y-119877500D01*
X123511536Y-119877500D01*
X123511524Y-119877500D01*
X123193148Y-119917721D01*
X123193135Y-119917723D01*
X122882294Y-119997533D01*
X122583906Y-120115674D01*
X122583903Y-120115675D01*
X122302678Y-120270280D01*
X122302660Y-120270291D01*
X122043044Y-120458913D01*
X122043034Y-120458921D01*
X121809087Y-120678611D01*
X121604522Y-120925888D01*
X121604520Y-120925891D01*
X121432562Y-121196855D01*
X121432558Y-121196861D01*
X121295918Y-121487235D01*
X121295916Y-121487240D01*
X121196745Y-121792457D01*
X121196744Y-121792461D01*
X121196744Y-121792462D01*
X121194949Y-121801870D01*
X121136607Y-122107709D01*
X121136606Y-122107716D01*
X121116457Y-122427994D01*
X121116457Y-122428005D01*
X105984482Y-122428005D01*
X105982065Y-119775870D01*
X116171500Y-119775870D01*
X116171501Y-119775876D01*
X116177908Y-119835483D01*
X116228202Y-119970328D01*
X116228206Y-119970335D01*
X116314452Y-120085544D01*
X116314455Y-120085547D01*
X116429664Y-120171793D01*
X116429671Y-120171797D01*
X116564517Y-120222091D01*
X116564516Y-120222091D01*
X116571444Y-120222835D01*
X116624127Y-120228500D01*
X118719872Y-120228499D01*
X118779483Y-120222091D01*
X118914331Y-120171796D01*
X119029546Y-120085546D01*
X119115796Y-119970331D01*
X119166091Y-119835483D01*
X119172500Y-119775873D01*
X119172499Y-118780128D01*
X119166091Y-118720517D01*
X119115796Y-118585669D01*
X119115795Y-118585668D01*
X119115793Y-118585664D01*
X119029547Y-118470455D01*
X119029544Y-118470452D01*
X118914335Y-118384206D01*
X118914328Y-118384202D01*
X118779482Y-118333908D01*
X118779483Y-118333908D01*
X118719883Y-118327501D01*
X118719881Y-118327500D01*
X118719873Y-118327500D01*
X118719864Y-118327500D01*
X116624129Y-118327500D01*
X116624123Y-118327501D01*
X116564516Y-118333908D01*
X116429671Y-118384202D01*
X116429664Y-118384206D01*
X116314455Y-118470452D01*
X116314452Y-118470455D01*
X116228206Y-118585664D01*
X116228202Y-118585671D01*
X116177908Y-118720517D01*
X116171501Y-118780116D01*
X116171501Y-118780123D01*
X116171500Y-118780135D01*
X116171500Y-119775870D01*
X105982065Y-119775870D01*
X105974379Y-111343870D01*
X116075500Y-111343870D01*
X116075501Y-111343876D01*
X116081908Y-111403483D01*
X116132202Y-111538328D01*
X116132206Y-111538335D01*
X116218452Y-111653544D01*
X116218455Y-111653547D01*
X116333664Y-111739793D01*
X116333671Y-111739797D01*
X116468517Y-111790091D01*
X116468516Y-111790091D01*
X116475444Y-111790835D01*
X116528127Y-111796500D01*
X118623872Y-111796499D01*
X118683483Y-111790091D01*
X118818331Y-111739796D01*
X118933546Y-111653546D01*
X119019796Y-111538331D01*
X119070091Y-111403483D01*
X119076500Y-111343873D01*
X119076499Y-110348128D01*
X119070091Y-110288517D01*
X119019796Y-110153669D01*
X119019795Y-110153668D01*
X119019793Y-110153664D01*
X118933547Y-110038455D01*
X118933544Y-110038452D01*
X118818335Y-109952206D01*
X118818328Y-109952202D01*
X118683482Y-109901908D01*
X118683483Y-109901908D01*
X118623883Y-109895501D01*
X118623881Y-109895500D01*
X118623873Y-109895500D01*
X118623864Y-109895500D01*
X116528129Y-109895500D01*
X116528123Y-109895501D01*
X116468516Y-109901908D01*
X116333671Y-109952202D01*
X116333664Y-109952206D01*
X116218455Y-110038452D01*
X116218452Y-110038455D01*
X116132206Y-110153664D01*
X116132202Y-110153671D01*
X116081908Y-110288517D01*
X116078689Y-110318462D01*
X116075501Y-110348123D01*
X116075500Y-110348135D01*
X116075500Y-111343870D01*
X105974379Y-111343870D01*
X105964491Y-100496005D01*
X121020457Y-100496005D01*
X121040606Y-100816283D01*
X121040607Y-100816290D01*
X121100745Y-101131542D01*
X121199916Y-101436759D01*
X121199918Y-101436764D01*
X121336558Y-101727138D01*
X121336562Y-101727144D01*
X121508520Y-101998108D01*
X121508522Y-101998111D01*
X121713087Y-102245388D01*
X121947034Y-102465078D01*
X121947044Y-102465086D01*
X122206660Y-102653708D01*
X122206666Y-102653711D01*
X122206672Y-102653716D01*
X122487903Y-102808324D01*
X122786294Y-102926466D01*
X122786293Y-102926466D01*
X123097135Y-103006276D01*
X123097139Y-103006277D01*
X123163935Y-103014715D01*
X123415524Y-103046499D01*
X123415533Y-103046499D01*
X123415536Y-103046500D01*
X123415538Y-103046500D01*
X123736462Y-103046500D01*
X123736464Y-103046500D01*
X123736467Y-103046499D01*
X123736475Y-103046499D01*
X123926463Y-103022497D01*
X124054861Y-103006277D01*
X124365706Y-102926466D01*
X124664097Y-102808324D01*
X124945328Y-102653716D01*
X125204964Y-102465080D01*
X125438911Y-102245390D01*
X125643478Y-101998110D01*
X125815439Y-101727142D01*
X125952084Y-101436758D01*
X126051256Y-101131538D01*
X126111392Y-100816294D01*
X126111393Y-100816283D01*
X126131543Y-100496005D01*
X126131543Y-100495994D01*
X126111393Y-100175716D01*
X126111392Y-100175709D01*
X126111392Y-100175706D01*
X126051256Y-99860462D01*
X125952084Y-99555242D01*
X125952081Y-99555235D01*
X125815441Y-99264861D01*
X125815437Y-99264855D01*
X125643479Y-98993891D01*
X125643477Y-98993888D01*
X125438912Y-98746611D01*
X125204965Y-98526921D01*
X125204955Y-98526913D01*
X124945339Y-98338291D01*
X124945321Y-98338280D01*
X124664096Y-98183675D01*
X124664093Y-98183674D01*
X124365703Y-98065533D01*
X124365706Y-98065533D01*
X124054864Y-97985723D01*
X124054851Y-97985721D01*
X123736475Y-97945500D01*
X123736464Y-97945500D01*
X123415536Y-97945500D01*
X123415524Y-97945500D01*
X123097148Y-97985721D01*
X123097135Y-97985723D01*
X122786294Y-98065533D01*
X122487906Y-98183674D01*
X122487903Y-98183675D01*
X122206678Y-98338280D01*
X122206660Y-98338291D01*
X121947044Y-98526913D01*
X121947034Y-98526921D01*
X121713087Y-98746611D01*
X121508522Y-98993888D01*
X121508520Y-98993891D01*
X121336562Y-99264855D01*
X121336558Y-99264861D01*
X121199918Y-99555235D01*
X121199916Y-99555240D01*
X121100745Y-99860457D01*
X121040607Y-100175709D01*
X121040606Y-100175716D01*
X121020457Y-100495994D01*
X121020457Y-100496005D01*
X105964491Y-100496005D01*
X105962074Y-97843870D01*
X116075500Y-97843870D01*
X116075501Y-97843876D01*
X116081908Y-97903483D01*
X116132202Y-98038328D01*
X116132206Y-98038335D01*
X116218452Y-98153544D01*
X116218455Y-98153547D01*
X116333664Y-98239793D01*
X116333671Y-98239797D01*
X116468517Y-98290091D01*
X116468516Y-98290091D01*
X116475444Y-98290835D01*
X116528127Y-98296500D01*
X118623872Y-98296499D01*
X118683483Y-98290091D01*
X118818331Y-98239796D01*
X118933546Y-98153546D01*
X119019796Y-98038331D01*
X119070091Y-97903483D01*
X119076500Y-97843873D01*
X119076499Y-96848128D01*
X119070091Y-96788517D01*
X119019796Y-96653669D01*
X119019795Y-96653668D01*
X119019793Y-96653664D01*
X118933547Y-96538455D01*
X118933544Y-96538452D01*
X118818335Y-96452206D01*
X118818328Y-96452202D01*
X118683482Y-96401908D01*
X118683483Y-96401908D01*
X118623883Y-96395501D01*
X118623881Y-96395500D01*
X118623873Y-96395500D01*
X118623864Y-96395500D01*
X116528129Y-96395500D01*
X116528123Y-96395501D01*
X116468516Y-96401908D01*
X116333671Y-96452202D01*
X116333664Y-96452206D01*
X116218455Y-96538452D01*
X116218452Y-96538455D01*
X116132206Y-96653664D01*
X116132202Y-96653671D01*
X116081908Y-96788517D01*
X116075501Y-96848116D01*
X116075501Y-96848123D01*
X116075500Y-96848135D01*
X116075500Y-97843870D01*
X105962074Y-97843870D01*
X105938836Y-72350000D01*
X114406341Y-72350000D01*
X114426936Y-72585403D01*
X114426938Y-72585413D01*
X114488094Y-72813655D01*
X114488096Y-72813659D01*
X114488097Y-72813663D01*
X114517716Y-72877181D01*
X114587964Y-73027828D01*
X114587965Y-73027830D01*
X114723505Y-73221402D01*
X114890597Y-73388494D01*
X115084169Y-73524034D01*
X115084171Y-73524035D01*
X115298337Y-73623903D01*
X115526592Y-73685063D01*
X115703034Y-73700500D01*
X116070966Y-73700500D01*
X116247408Y-73685063D01*
X116475663Y-73623903D01*
X116689829Y-73524035D01*
X116883401Y-73388495D01*
X117050495Y-73221401D01*
X117186035Y-73027830D01*
X117285903Y-72813663D01*
X117347063Y-72585408D01*
X117367659Y-72350000D01*
X117347063Y-72114592D01*
X117285903Y-71886337D01*
X117186035Y-71672171D01*
X117186034Y-71672169D01*
X117050494Y-71478597D01*
X116883403Y-71311506D01*
X116788450Y-71245020D01*
X116726401Y-71201573D01*
X116682778Y-71146999D01*
X116675584Y-71077500D01*
X116707106Y-71015145D01*
X116726398Y-70998428D01*
X116883401Y-70888495D01*
X117050495Y-70721401D01*
X117186035Y-70527830D01*
X117285903Y-70313663D01*
X117347063Y-70085408D01*
X117367659Y-69850000D01*
X117347063Y-69614592D01*
X117285903Y-69386337D01*
X117186035Y-69172171D01*
X117186034Y-69172169D01*
X117050494Y-68978597D01*
X116883403Y-68811506D01*
X116807977Y-68758693D01*
X116726401Y-68701573D01*
X116682778Y-68646999D01*
X116675584Y-68577500D01*
X116707106Y-68515145D01*
X116726398Y-68498428D01*
X116883401Y-68388495D01*
X117050495Y-68221401D01*
X117186035Y-68027830D01*
X117285903Y-67813663D01*
X117347063Y-67585408D01*
X117367659Y-67350000D01*
X117347063Y-67114592D01*
X117285903Y-66886337D01*
X117186035Y-66672171D01*
X117186034Y-66672169D01*
X117050494Y-66478597D01*
X116903295Y-66331398D01*
X116869810Y-66270075D01*
X116874794Y-66200383D01*
X116916666Y-66144450D01*
X116925880Y-66138178D01*
X117031142Y-66073252D01*
X117080656Y-66042712D01*
X117204712Y-65918656D01*
X117296814Y-65769334D01*
X117351999Y-65602797D01*
X117362500Y-65500009D01*
X117362499Y-64199992D01*
X117351999Y-64097203D01*
X117296814Y-63930666D01*
X117204712Y-63781344D01*
X117080656Y-63657288D01*
X116931334Y-63565186D01*
X116764797Y-63510001D01*
X116764795Y-63510000D01*
X116662010Y-63499500D01*
X115111998Y-63499500D01*
X115111981Y-63499501D01*
X115009203Y-63510000D01*
X115009200Y-63510001D01*
X114842668Y-63565185D01*
X114842663Y-63565187D01*
X114693342Y-63657289D01*
X114569289Y-63781342D01*
X114477187Y-63930663D01*
X114477185Y-63930666D01*
X114477186Y-63930666D01*
X114422001Y-64097203D01*
X114422001Y-64097204D01*
X114422000Y-64097204D01*
X114411500Y-64199983D01*
X114411500Y-65500001D01*
X114411501Y-65500018D01*
X114422000Y-65602796D01*
X114422001Y-65602799D01*
X114468664Y-65743616D01*
X114477186Y-65769334D01*
X114566119Y-65913519D01*
X114569289Y-65918657D01*
X114693344Y-66042712D01*
X114848120Y-66138178D01*
X114894845Y-66190126D01*
X114906068Y-66259088D01*
X114878224Y-66323171D01*
X114870706Y-66331398D01*
X114723501Y-66478603D01*
X114723501Y-66478604D01*
X114587967Y-66672165D01*
X114587965Y-66672169D01*
X114488098Y-66886335D01*
X114488094Y-66886344D01*
X114426938Y-67114586D01*
X114426936Y-67114596D01*
X114406341Y-67349999D01*
X114406341Y-67350000D01*
X114426936Y-67585403D01*
X114426938Y-67585413D01*
X114488094Y-67813655D01*
X114488096Y-67813659D01*
X114488097Y-67813663D01*
X114509805Y-67860216D01*
X114587964Y-68027828D01*
X114587965Y-68027830D01*
X114723505Y-68221402D01*
X114890597Y-68388494D01*
X115047595Y-68498425D01*
X115091220Y-68553002D01*
X115098414Y-68622500D01*
X115066891Y-68684855D01*
X115047595Y-68701575D01*
X114890597Y-68811505D01*
X114723506Y-68978597D01*
X114723501Y-68978604D01*
X114587967Y-69172165D01*
X114587965Y-69172169D01*
X114488098Y-69386335D01*
X114488094Y-69386344D01*
X114426938Y-69614586D01*
X114426936Y-69614596D01*
X114406341Y-69849999D01*
X114406341Y-69850000D01*
X114426936Y-70085403D01*
X114426938Y-70085413D01*
X114488094Y-70313655D01*
X114488096Y-70313659D01*
X114488097Y-70313663D01*
X114531429Y-70406588D01*
X114587964Y-70527828D01*
X114587965Y-70527830D01*
X114723505Y-70721402D01*
X114890597Y-70888494D01*
X115047595Y-70998425D01*
X115091220Y-71053002D01*
X115098414Y-71122500D01*
X115066891Y-71184855D01*
X115047595Y-71201575D01*
X114890597Y-71311505D01*
X114723506Y-71478597D01*
X114723501Y-71478604D01*
X114587967Y-71672165D01*
X114587965Y-71672169D01*
X114488098Y-71886335D01*
X114488094Y-71886344D01*
X114426938Y-72114586D01*
X114426936Y-72114596D01*
X114406341Y-72349999D01*
X114406341Y-72350000D01*
X105938836Y-72350000D01*
X105935834Y-69056151D01*
X108136500Y-69056151D01*
X108151622Y-69224186D01*
X108151623Y-69224192D01*
X108211503Y-69441160D01*
X108211508Y-69441173D01*
X108309167Y-69643966D01*
X108309171Y-69643974D01*
X108441473Y-69826072D01*
X108441474Y-69826074D01*
X108441477Y-69826077D01*
X108441478Y-69826078D01*
X108526647Y-69907508D01*
X108604176Y-69981633D01*
X108792033Y-70105636D01*
X108999004Y-70194100D01*
X108999007Y-70194101D01*
X108999012Y-70194103D01*
X109218463Y-70244191D01*
X109443330Y-70254290D01*
X109666387Y-70224075D01*
X109880464Y-70154517D01*
X110078681Y-70047852D01*
X110254666Y-69907508D01*
X110402765Y-69737996D01*
X110518215Y-69544764D01*
X110597307Y-69334024D01*
X110617240Y-69224186D01*
X110637500Y-69112549D01*
X110637500Y-68143852D01*
X110637500Y-68143845D01*
X110622377Y-67975812D01*
X110592064Y-67865976D01*
X110562496Y-67758839D01*
X110562491Y-67758826D01*
X110464832Y-67556033D01*
X110464828Y-67556025D01*
X110332526Y-67373927D01*
X110332525Y-67373925D01*
X110307501Y-67350000D01*
X110169825Y-67218368D01*
X110169823Y-67218366D01*
X109981966Y-67094363D01*
X109774995Y-67005899D01*
X109774982Y-67005895D01*
X109555542Y-66955810D01*
X109555538Y-66955809D01*
X109555537Y-66955809D01*
X109555536Y-66955808D01*
X109555531Y-66955808D01*
X109330674Y-66945710D01*
X109330673Y-66945710D01*
X109330670Y-66945710D01*
X109107613Y-66975925D01*
X109107610Y-66975925D01*
X109107609Y-66975926D01*
X108893534Y-67045483D01*
X108695321Y-67152146D01*
X108695318Y-67152148D01*
X108519336Y-67292489D01*
X108448186Y-67373927D01*
X108371235Y-67462004D01*
X108352404Y-67493522D01*
X108273355Y-67625829D01*
X108255785Y-67655236D01*
X108252561Y-67663827D01*
X108176692Y-67865976D01*
X108136500Y-68087450D01*
X108136500Y-69056151D01*
X105935834Y-69056151D01*
X105927320Y-59715476D01*
X133360663Y-59715476D01*
X133365002Y-59749553D01*
X133365499Y-59757392D01*
X133365499Y-73139284D01*
X133363243Y-73228359D01*
X133363243Y-73228367D01*
X133374064Y-73288739D01*
X133374718Y-73293404D01*
X133380925Y-73354430D01*
X133380927Y-73354444D01*
X133391208Y-73387213D01*
X133393079Y-73394837D01*
X133399142Y-73428652D01*
X133399142Y-73428655D01*
X133421894Y-73485612D01*
X133423474Y-73490051D01*
X133441841Y-73548588D01*
X133441844Y-73548595D01*
X133458509Y-73578619D01*
X133461879Y-73585714D01*
X133474622Y-73617614D01*
X133474627Y-73617624D01*
X133478767Y-73623905D01*
X133503823Y-73661924D01*
X133508377Y-73668833D01*
X133510818Y-73672863D01*
X133540588Y-73726498D01*
X133540589Y-73726499D01*
X133540591Y-73726502D01*
X133562968Y-73752567D01*
X133567693Y-73758835D01*
X133580263Y-73777906D01*
X133586598Y-73787519D01*
X133629978Y-73830899D01*
X133633169Y-73834343D01*
X133657826Y-73863064D01*
X133673134Y-73880895D01*
X133700294Y-73901918D01*
X133706190Y-73907111D01*
X134411566Y-74612487D01*
X134472938Y-74677050D01*
X134472941Y-74677053D01*
X134523281Y-74712092D01*
X134527043Y-74714928D01*
X134574587Y-74753694D01*
X134574590Y-74753695D01*
X134574593Y-74753698D01*
X134605045Y-74769604D01*
X134611758Y-74773672D01*
X134639951Y-74793295D01*
X134696329Y-74817489D01*
X134700578Y-74819507D01*
X134754951Y-74847909D01*
X134782489Y-74855788D01*
X134787974Y-74857358D01*
X134795368Y-74859990D01*
X134826942Y-74873540D01*
X134826945Y-74873540D01*
X134826946Y-74873541D01*
X134887022Y-74885887D01*
X134891600Y-74887010D01*
X134905501Y-74890987D01*
X134950582Y-74903887D01*
X134984839Y-74906495D01*
X134992614Y-74907586D01*
X135026255Y-74914500D01*
X135026259Y-74914500D01*
X135087599Y-74914500D01*
X135092305Y-74914678D01*
X135127063Y-74917325D01*
X135153476Y-74919337D01*
X135153476Y-74919336D01*
X135153477Y-74919337D01*
X135187560Y-74914996D01*
X135195390Y-74914500D01*
X137464743Y-74914500D01*
X137616439Y-74899074D01*
X137810579Y-74838162D01*
X137810580Y-74838161D01*
X137810588Y-74838159D01*
X137988502Y-74739409D01*
X138142895Y-74606866D01*
X138267448Y-74445958D01*
X138357060Y-74263271D01*
X138408063Y-74066285D01*
X138418369Y-73863064D01*
X138387556Y-73661929D01*
X138316886Y-73471113D01*
X138209252Y-73298429D01*
X138069059Y-73150947D01*
X137970587Y-73082409D01*
X137902050Y-73034705D01*
X137715056Y-72954459D01*
X137515741Y-72913500D01*
X135593782Y-72913500D01*
X135526743Y-72893815D01*
X135506105Y-72877185D01*
X135402818Y-72773898D01*
X135369334Y-72712575D01*
X135366500Y-72686217D01*
X135366500Y-69262782D01*
X135386185Y-69195743D01*
X135438989Y-69149988D01*
X135508147Y-69140044D01*
X135571703Y-69169069D01*
X135578167Y-69175088D01*
X136742420Y-70339340D01*
X136860593Y-70435698D01*
X137040951Y-70529909D01*
X137236582Y-70585886D01*
X137425117Y-70600243D01*
X137439475Y-70601337D01*
X137439476Y-70601337D01*
X137641321Y-70575631D01*
X137641321Y-70575630D01*
X137641328Y-70575630D01*
X137833872Y-70509816D01*
X138009227Y-70406590D01*
X138160213Y-70270179D01*
X138280649Y-70106167D01*
X138365605Y-69921268D01*
X138376252Y-69875390D01*
X138411602Y-69723053D01*
X138413394Y-69652325D01*
X138416756Y-69519637D01*
X138380858Y-69319347D01*
X138305377Y-69130383D01*
X138305372Y-69130376D01*
X138305370Y-69130371D01*
X138193403Y-68960482D01*
X138193400Y-68960478D01*
X137180819Y-67947897D01*
X137147334Y-67886574D01*
X137144500Y-67860216D01*
X137144500Y-66396566D01*
X137164185Y-66329527D01*
X137216989Y-66283772D01*
X137274777Y-66272725D01*
X137464936Y-66282369D01*
X137666071Y-66251556D01*
X137856887Y-66180886D01*
X138029571Y-66073252D01*
X138177053Y-65933059D01*
X138293295Y-65766049D01*
X138373540Y-65579058D01*
X138414500Y-65379741D01*
X138414500Y-65354358D01*
X149111242Y-65354358D01*
X149147140Y-65554648D01*
X149147142Y-65554654D01*
X149169227Y-65609942D01*
X149207748Y-65706379D01*
X149222623Y-65743616D01*
X149222629Y-65743628D01*
X149334596Y-65913517D01*
X149334599Y-65913521D01*
X149839181Y-66418101D01*
X149872666Y-66479424D01*
X149875500Y-66505782D01*
X149875500Y-77520743D01*
X149890925Y-77672439D01*
X149951837Y-77866579D01*
X149951844Y-77866594D01*
X150050589Y-78044499D01*
X150050592Y-78044504D01*
X150183132Y-78198893D01*
X150183134Y-78198895D01*
X150344037Y-78323445D01*
X150344038Y-78323445D01*
X150344042Y-78323448D01*
X150526729Y-78413060D01*
X150723715Y-78464063D01*
X150926936Y-78474369D01*
X151128071Y-78443556D01*
X151318887Y-78372886D01*
X151491571Y-78265252D01*
X151639053Y-78125059D01*
X151755295Y-77958049D01*
X151835540Y-77771058D01*
X151876500Y-77571741D01*
X151876500Y-67767258D01*
X151876500Y-66052715D01*
X151878757Y-65963637D01*
X151867933Y-65903249D01*
X151867280Y-65898587D01*
X151861074Y-65837563D01*
X151861074Y-65837562D01*
X151850784Y-65804768D01*
X151848917Y-65797155D01*
X151843930Y-65769331D01*
X151842858Y-65763347D01*
X151820095Y-65706361D01*
X151818527Y-65701955D01*
X151809367Y-65672760D01*
X151800161Y-65643416D01*
X151800160Y-65643414D01*
X151783492Y-65613385D01*
X151780124Y-65606295D01*
X151771290Y-65584178D01*
X151767380Y-65574387D01*
X151767378Y-65574383D01*
X151754375Y-65554654D01*
X151733612Y-65523150D01*
X151731183Y-65519142D01*
X151701409Y-65465498D01*
X151679034Y-65439434D01*
X151674306Y-65433163D01*
X151655404Y-65404484D01*
X151655399Y-65404478D01*
X151623420Y-65372500D01*
X151612019Y-65361099D01*
X151608828Y-65357655D01*
X151568865Y-65311104D01*
X151541694Y-65290072D01*
X151535807Y-65284887D01*
X150785580Y-64534660D01*
X150667407Y-64438302D01*
X150487049Y-64344091D01*
X150291418Y-64288113D01*
X150291417Y-64288112D01*
X150291416Y-64288112D01*
X150088525Y-64272662D01*
X150088522Y-64272662D01*
X149886678Y-64298368D01*
X149886670Y-64298370D01*
X149694129Y-64364183D01*
X149694117Y-64364189D01*
X149518778Y-64467406D01*
X149518771Y-64467411D01*
X149367787Y-64603820D01*
X149367787Y-64603821D01*
X149247353Y-64767828D01*
X149247349Y-64767835D01*
X149162397Y-64952725D01*
X149162393Y-64952737D01*
X149116396Y-65150945D01*
X149111242Y-65354358D01*
X138414500Y-65354358D01*
X138414500Y-63203781D01*
X138434185Y-63136743D01*
X138450819Y-63116101D01*
X140951341Y-60615580D01*
X140951341Y-60615579D01*
X141602101Y-59964818D01*
X141663424Y-59931334D01*
X141689782Y-59928500D01*
X143662259Y-59928500D01*
X150609284Y-59928500D01*
X150698358Y-59930757D01*
X150698358Y-59930756D01*
X150698363Y-59930757D01*
X150758753Y-59919932D01*
X150763412Y-59919280D01*
X150805607Y-59914988D01*
X150824438Y-59913074D01*
X150857227Y-59902786D01*
X150864840Y-59900918D01*
X150898653Y-59894858D01*
X150955621Y-59872101D01*
X150960053Y-59870524D01*
X151018588Y-59852159D01*
X151048627Y-59835484D01*
X151055708Y-59832122D01*
X151087617Y-59819377D01*
X151138854Y-59785608D01*
X151142851Y-59783187D01*
X151196502Y-59753409D01*
X151222568Y-59731030D01*
X151228843Y-59726300D01*
X151257519Y-59707402D01*
X151300892Y-59664027D01*
X151304350Y-59660823D01*
X151317427Y-59649597D01*
X151350895Y-59620866D01*
X151371928Y-59593691D01*
X151377098Y-59587821D01*
X155429340Y-55535580D01*
X155525698Y-55417407D01*
X155619909Y-55237049D01*
X155675887Y-55041418D01*
X155691337Y-54838524D01*
X155688094Y-54813063D01*
X155665631Y-54636678D01*
X155665630Y-54636676D01*
X155665630Y-54636672D01*
X155599816Y-54444128D01*
X155496591Y-54268773D01*
X155435732Y-54201412D01*
X155360180Y-54117787D01*
X155360178Y-54117786D01*
X155196171Y-53997353D01*
X155196164Y-53997349D01*
X155011274Y-53912397D01*
X155011262Y-53912393D01*
X154813054Y-53866396D01*
X154609641Y-53861242D01*
X154409351Y-53897140D01*
X154409345Y-53897142D01*
X154220383Y-53972623D01*
X154220371Y-53972629D01*
X154050482Y-54084596D01*
X154050478Y-54084599D01*
X150243899Y-57891181D01*
X150182576Y-57924666D01*
X150156218Y-57927500D01*
X149272782Y-57927500D01*
X149205743Y-57907815D01*
X149159988Y-57855011D01*
X149150044Y-57785853D01*
X149179069Y-57722297D01*
X149185101Y-57715819D01*
X149185101Y-57715818D01*
X151365340Y-55535580D01*
X151461698Y-55417407D01*
X151555909Y-55237049D01*
X151611886Y-55041418D01*
X151627337Y-54838524D01*
X151624095Y-54813064D01*
X151601631Y-54636678D01*
X151601630Y-54636676D01*
X151601630Y-54636672D01*
X151535816Y-54444128D01*
X151432590Y-54268773D01*
X151296179Y-54117787D01*
X151273249Y-54100949D01*
X151132171Y-53997353D01*
X151132164Y-53997349D01*
X150947274Y-53912397D01*
X150947261Y-53912392D01*
X150749054Y-53866397D01*
X150545639Y-53861244D01*
X150545634Y-53861244D01*
X150345352Y-53897140D01*
X150345345Y-53897142D01*
X150156383Y-53972623D01*
X150156371Y-53972629D01*
X149986482Y-54084596D01*
X149986478Y-54084599D01*
X147957899Y-56113181D01*
X147896576Y-56146666D01*
X147870218Y-56149500D01*
X140474677Y-56149500D01*
X140385637Y-56147244D01*
X140385626Y-56147245D01*
X140325271Y-56158062D01*
X140320607Y-56158716D01*
X140259563Y-56164925D01*
X140259555Y-56164927D01*
X140226781Y-56175210D01*
X140219153Y-56177082D01*
X140185349Y-56183141D01*
X140128381Y-56205895D01*
X140123945Y-56207474D01*
X140065414Y-56225840D01*
X140065410Y-56225842D01*
X140035378Y-56242510D01*
X140028284Y-56245879D01*
X139996382Y-56258623D01*
X139996377Y-56258625D01*
X139945156Y-56292381D01*
X139941128Y-56294822D01*
X139887501Y-56324588D01*
X139861434Y-56346965D01*
X139855165Y-56351692D01*
X139826484Y-56370595D01*
X139826478Y-56370600D01*
X139783109Y-56413968D01*
X139779655Y-56417169D01*
X139733102Y-56457136D01*
X139712076Y-56484298D01*
X139706885Y-56490192D01*
X136524483Y-59672596D01*
X136524481Y-59672598D01*
X135578181Y-60618897D01*
X135516858Y-60652382D01*
X135447166Y-60647398D01*
X135391233Y-60605526D01*
X135366816Y-60540062D01*
X135366500Y-60531216D01*
X135366500Y-60155782D01*
X135386185Y-60088743D01*
X135402819Y-60068101D01*
X139570102Y-55900819D01*
X139631425Y-55867334D01*
X139657783Y-55864500D01*
X146608743Y-55864500D01*
X146760439Y-55849074D01*
X146954579Y-55788162D01*
X146954580Y-55788161D01*
X146954588Y-55788159D01*
X147132502Y-55689409D01*
X147286895Y-55556866D01*
X147411448Y-55395958D01*
X147501060Y-55213271D01*
X147552063Y-55016285D01*
X147562369Y-54813064D01*
X147531556Y-54611929D01*
X147460886Y-54421113D01*
X147353252Y-54248429D01*
X147213059Y-54100947D01*
X147080702Y-54008824D01*
X147046050Y-53984705D01*
X146859056Y-53904459D01*
X146659741Y-53863500D01*
X139204717Y-53863500D01*
X139115637Y-53861243D01*
X139115628Y-53861243D01*
X139055260Y-53872064D01*
X139050595Y-53872718D01*
X138989563Y-53878925D01*
X138989555Y-53878927D01*
X138956781Y-53889210D01*
X138949154Y-53891082D01*
X138915350Y-53897141D01*
X138858384Y-53919894D01*
X138853948Y-53921473D01*
X138795414Y-53939840D01*
X138795412Y-53939841D01*
X138765385Y-53956506D01*
X138758293Y-53959874D01*
X138726383Y-53972621D01*
X138675154Y-54006383D01*
X138671126Y-54008824D01*
X138617502Y-54038588D01*
X138617499Y-54038590D01*
X138591427Y-54060970D01*
X138585160Y-54065695D01*
X138556482Y-54084598D01*
X138556475Y-54084603D01*
X138513116Y-54127962D01*
X138509661Y-54131164D01*
X138463106Y-54171132D01*
X138463105Y-54171133D01*
X138442076Y-54198300D01*
X138436884Y-54204194D01*
X133667532Y-58973546D01*
X133602946Y-59034942D01*
X133567899Y-59085294D01*
X133565062Y-59089056D01*
X133526302Y-59136592D01*
X133526299Y-59136597D01*
X133510392Y-59167047D01*
X133506324Y-59173761D01*
X133486702Y-59201954D01*
X133462509Y-59258330D01*
X133460488Y-59262584D01*
X133432091Y-59316951D01*
X133432090Y-59316952D01*
X133422640Y-59349975D01*
X133420007Y-59357371D01*
X133406459Y-59388943D01*
X133394113Y-59449019D01*
X133392990Y-59453595D01*
X133376113Y-59512577D01*
X133376113Y-59512579D01*
X133373503Y-59546841D01*
X133372414Y-59554608D01*
X133369752Y-59567561D01*
X133365499Y-59588258D01*
X133365500Y-59649597D01*
X133365321Y-59654306D01*
X133360663Y-59715476D01*
X105927320Y-59715476D01*
X105918561Y-50105763D01*
X108127787Y-50105763D01*
X108157413Y-50375013D01*
X108157415Y-50375024D01*
X108225926Y-50637082D01*
X108225928Y-50637088D01*
X108331870Y-50886390D01*
X108403998Y-51004575D01*
X108472979Y-51117605D01*
X108472986Y-51117615D01*
X108646253Y-51325819D01*
X108646259Y-51325824D01*
X108708831Y-51381888D01*
X108847998Y-51506582D01*
X109073910Y-51656044D01*
X109319176Y-51771020D01*
X109319183Y-51771022D01*
X109319185Y-51771023D01*
X109578557Y-51849057D01*
X109578564Y-51849058D01*
X109578569Y-51849060D01*
X109846561Y-51888500D01*
X109846566Y-51888500D01*
X110049636Y-51888500D01*
X110101133Y-51884730D01*
X110252156Y-51873677D01*
X110364758Y-51848593D01*
X110516546Y-51814782D01*
X110516548Y-51814781D01*
X110516553Y-51814780D01*
X110769558Y-51718014D01*
X111005777Y-51585441D01*
X111220177Y-51419888D01*
X111408186Y-51224881D01*
X111565799Y-51004579D01*
X111646102Y-50848389D01*
X111689649Y-50763690D01*
X111689651Y-50763684D01*
X111689656Y-50763675D01*
X111777118Y-50507305D01*
X111826319Y-50240933D01*
X111832648Y-50067763D01*
X198145787Y-50067763D01*
X198175413Y-50337013D01*
X198175415Y-50337024D01*
X198219935Y-50507314D01*
X198243928Y-50599088D01*
X198349870Y-50848390D01*
X198421998Y-50966575D01*
X198490979Y-51079605D01*
X198490986Y-51079615D01*
X198664253Y-51287819D01*
X198664259Y-51287824D01*
X198706670Y-51325824D01*
X198865998Y-51468582D01*
X199091910Y-51618044D01*
X199337176Y-51733020D01*
X199337183Y-51733022D01*
X199337185Y-51733023D01*
X199596557Y-51811057D01*
X199596564Y-51811058D01*
X199596569Y-51811060D01*
X199864561Y-51850500D01*
X199864566Y-51850500D01*
X200067636Y-51850500D01*
X200119133Y-51846730D01*
X200270156Y-51835677D01*
X200382758Y-51810593D01*
X200534546Y-51776782D01*
X200534548Y-51776781D01*
X200534553Y-51776780D01*
X200787558Y-51680014D01*
X201023777Y-51547441D01*
X201238177Y-51381888D01*
X201426186Y-51186881D01*
X201583799Y-50966579D01*
X201657787Y-50822669D01*
X201707649Y-50725690D01*
X201707651Y-50725684D01*
X201707656Y-50725675D01*
X201795118Y-50469305D01*
X201844319Y-50202933D01*
X201854212Y-49932235D01*
X201824586Y-49662982D01*
X201756072Y-49400912D01*
X201650130Y-49151610D01*
X201509018Y-48920390D01*
X201471388Y-48875173D01*
X201335746Y-48712180D01*
X201335740Y-48712175D01*
X201134002Y-48531418D01*
X200908092Y-48381957D01*
X200856957Y-48357986D01*
X200662824Y-48266980D01*
X200662819Y-48266978D01*
X200662814Y-48266976D01*
X200403442Y-48188942D01*
X200403428Y-48188939D01*
X200287791Y-48171921D01*
X200135439Y-48149500D01*
X199932369Y-48149500D01*
X199932364Y-48149500D01*
X199729844Y-48164323D01*
X199729831Y-48164325D01*
X199465453Y-48223217D01*
X199465446Y-48223220D01*
X199212439Y-48319987D01*
X198976226Y-48452557D01*
X198761822Y-48618112D01*
X198573822Y-48813109D01*
X198573816Y-48813116D01*
X198416202Y-49033419D01*
X198416199Y-49033424D01*
X198292350Y-49274309D01*
X198292343Y-49274327D01*
X198204884Y-49530685D01*
X198204881Y-49530699D01*
X198155681Y-49797068D01*
X198155680Y-49797075D01*
X198145787Y-50067763D01*
X111832648Y-50067763D01*
X111836212Y-49970235D01*
X111806586Y-49700982D01*
X111738072Y-49438912D01*
X111632130Y-49189610D01*
X111491018Y-48958390D01*
X111459389Y-48920384D01*
X111317746Y-48750180D01*
X111317740Y-48750175D01*
X111116002Y-48569418D01*
X110890092Y-48419957D01*
X110890090Y-48419956D01*
X110644824Y-48304980D01*
X110644819Y-48304978D01*
X110644814Y-48304976D01*
X110385442Y-48226942D01*
X110385428Y-48226939D01*
X110269791Y-48209921D01*
X110117439Y-48187500D01*
X109914369Y-48187500D01*
X109914364Y-48187500D01*
X109711844Y-48202323D01*
X109711831Y-48202325D01*
X109447453Y-48261217D01*
X109447446Y-48261220D01*
X109194439Y-48357987D01*
X108958226Y-48490557D01*
X108958224Y-48490558D01*
X108958223Y-48490559D01*
X108905308Y-48531418D01*
X108743822Y-48656112D01*
X108555822Y-48851109D01*
X108555816Y-48851116D01*
X108398202Y-49071419D01*
X108398199Y-49071424D01*
X108274350Y-49312309D01*
X108274343Y-49312327D01*
X108186884Y-49568685D01*
X108186881Y-49568699D01*
X108162449Y-49700975D01*
X108144699Y-49797075D01*
X108137681Y-49835068D01*
X108137680Y-49835075D01*
X108127787Y-50105763D01*
X105918561Y-50105763D01*
X105918501Y-50039448D01*
X105918567Y-50036543D01*
X105920190Y-50001439D01*
X105926498Y-49864996D01*
X105936601Y-49659347D01*
X105937117Y-49653869D01*
X105963247Y-49466550D01*
X105972983Y-49400917D01*
X105991505Y-49276049D01*
X105992476Y-49270979D01*
X106036433Y-49084084D01*
X106082611Y-48899733D01*
X106083957Y-48895128D01*
X106145376Y-48711881D01*
X106209107Y-48533769D01*
X106210710Y-48529755D01*
X106289078Y-48352268D01*
X106369775Y-48181650D01*
X106371637Y-48178028D01*
X106466293Y-48008087D01*
X106563230Y-47846358D01*
X106565221Y-47843254D01*
X106675373Y-47682453D01*
X106787712Y-47530983D01*
X106789748Y-47528389D01*
X106914442Y-47378226D01*
X107041140Y-47238436D01*
X107043172Y-47236302D01*
X107180302Y-47099172D01*
X107182436Y-47097140D01*
X107322226Y-46970442D01*
X107472389Y-46845748D01*
X107474983Y-46843712D01*
X107626453Y-46731373D01*
X107787254Y-46621221D01*
X107790358Y-46619230D01*
X107952087Y-46522293D01*
X108122028Y-46427637D01*
X108125650Y-46425775D01*
X108296262Y-46345081D01*
X108473755Y-46266710D01*
X108477769Y-46265107D01*
X108655881Y-46201376D01*
X108839128Y-46139957D01*
X108843733Y-46138611D01*
X109028084Y-46092433D01*
X109214979Y-46048476D01*
X109220049Y-46047505D01*
X109410467Y-46019258D01*
X109597867Y-45993117D01*
X109603349Y-45992601D01*
X109809070Y-45982494D01*
X109980578Y-45974565D01*
X109983427Y-45974500D01*
X199948158Y-46000484D01*
G37*
%TD.AperFunction*%
%TD*%
M02*
