M48
; DRILL file {KiCad 7.0.7} date Wed Mar  6 17:39:46 2024
; FORMAT={-:-/ absolute / metric / decimal}
; #@! TF.CreationDate,2024-03-06T17:39:46+09:00
; #@! TF.GenerationSoftware,Kicad,Pcbnew,7.0.7
; #@! TF.FileFunction,MixedPlating,1,2
FMAT,2
METRIC
; #@! TA.AperFunction,Plated,PTH,ViaDrill
T1C0.400
; #@! TA.AperFunction,Plated,PTH,ComponentDrill
T2C0.600
; #@! TA.AperFunction,Plated,PTH,ComponentDrill
T3C0.950
; #@! TA.AperFunction,Plated,PTH,ComponentDrill
T4C2.700
; #@! TA.AperFunction,NonPlated,NPTH,ComponentDrill
T5C2.000
; #@! TA.AperFunction,NonPlated,NPTH,ComponentDrill
T6C3.200
%
G90
G05
T1
X106.68Y-78.74
X106.68Y-83.82
X106.68Y-88.9
X106.68Y-93.98
X106.68Y-99.06
X106.68Y-104.14
X106.68Y-109.22
X106.68Y-114.3
X106.68Y-119.38
X106.68Y-124.46
X106.68Y-129.54
X106.68Y-134.62
X109.22Y-81.28
X109.22Y-86.36
X109.22Y-91.44
X109.22Y-96.52
X109.22Y-127.0
X109.22Y-132.08
X111.76Y-78.74
X111.76Y-83.82
X111.76Y-88.9
X111.76Y-93.98
X111.76Y-129.54
X111.76Y-134.62
X114.3Y-81.28
X114.3Y-86.36
X114.3Y-91.44
X114.3Y-96.52
X114.3Y-127.0
X114.3Y-132.08
X114.3Y-137.16
X116.84Y-78.74
X116.84Y-83.82
X116.84Y-88.9
X116.84Y-93.98
X116.84Y-104.14
X116.84Y-109.22
X116.84Y-114.3
X116.84Y-129.54
X116.84Y-134.62
X119.38Y-86.36
X119.38Y-91.44
X119.38Y-96.52
X119.38Y-106.68
X119.38Y-111.76
X119.38Y-116.84
X119.38Y-132.08
X119.38Y-137.16
X121.92Y-78.74
X121.92Y-88.9
X121.92Y-93.98
X121.92Y-104.14
X121.92Y-114.3
X121.92Y-134.62
X124.46Y-86.36
X124.46Y-91.44
X124.46Y-96.52
X124.46Y-111.76
X124.46Y-116.84
X124.46Y-137.16
X127.0Y-93.98
X127.0Y-104.14
X127.0Y-109.22
X127.0Y-114.3
X127.0Y-129.54
X127.0Y-134.62
X129.54Y-106.68
X129.54Y-111.76
X129.54Y-116.84
X129.54Y-127.0
X129.54Y-132.08
X129.54Y-137.16
X132.08Y-104.14
X132.08Y-114.3
X132.08Y-134.62
X134.62Y-106.68
X134.62Y-111.76
X134.62Y-116.84
X134.62Y-127.0
X134.62Y-132.08
X134.62Y-137.16
X137.16Y-83.82
X137.16Y-88.9
X137.16Y-93.98
X137.16Y-104.14
X137.16Y-109.22
X137.16Y-114.3
X137.16Y-129.54
X137.16Y-134.62
X137.414Y-65.278
X137.414Y-69.596
X137.414Y-73.914
X139.7Y-81.28
X139.7Y-86.36
X139.7Y-91.44
X139.7Y-96.52
X139.7Y-106.68
X139.7Y-111.76
X139.7Y-116.84
X139.7Y-127.0
X139.7Y-132.08
X139.7Y-137.16
X140.691Y-66.827
X140.691Y-71.145
X142.24Y-78.74
X142.24Y-83.82
X142.24Y-88.9
X142.24Y-93.98
X142.24Y-129.54
X142.24Y-134.62
X142.367Y-71.12
X142.443Y-66.802
X144.78Y-81.28
X144.78Y-86.36
X144.78Y-91.44
X144.78Y-96.52
X144.78Y-132.08
X144.78Y-137.16
X145.745Y-74.371
X146.558Y-54.864
X147.193Y-74.422
X147.32Y-66.802
X147.32Y-78.74
X147.32Y-83.82
X147.32Y-88.9
X147.32Y-93.98
X147.32Y-134.62
X147.701Y-73.304
X147.828Y-63.246
X148.717Y-74.397
X149.123Y-73.304
X149.352Y-69.85
X149.86Y-81.28
X149.86Y-86.36
X149.86Y-91.44
X149.86Y-96.52
X149.86Y-132.08
X149.86Y-137.16
X150.114Y-63.246
X150.114Y-65.278
X150.622Y-54.864
X150.876Y-67.818
X150.876Y-77.47
X152.4Y-83.82
X152.4Y-88.9
X152.4Y-93.98
X152.4Y-134.62
X154.686Y-54.864
X154.94Y-66.04
X154.94Y-68.58
X154.94Y-71.12
X154.94Y-81.28
X154.94Y-86.36
X154.94Y-91.44
X154.94Y-132.08
X154.94Y-137.16
X155.702Y-74.676
X155.702Y-76.708
X155.702Y-78.486
X155.956Y-67.31
X157.48Y-83.82
X157.48Y-88.9
X157.48Y-134.62
X160.02Y-86.36
X160.02Y-91.44
X160.02Y-132.08
X160.02Y-137.16
X161.59Y-105.232
X161.59Y-107.334
X161.59Y-126.158
X162.56Y-134.62
X163.119Y-126.162
X164.338Y-124.968
X165.1Y-127.0
X165.1Y-132.08
X165.1Y-137.16
X166.903Y-71.247
X167.259Y-80.899
X167.64Y-129.54
X167.64Y-134.62
X167.894Y-66.548
X167.894Y-69.596
X167.894Y-76.2
X167.894Y-79.248
X168.199Y-71.247
X168.351Y-80.899
X168.91Y-66.548
X168.91Y-69.596
X168.91Y-76.2
X168.91Y-79.248
X169.342Y-71.222
X169.469Y-80.924
X169.926Y-66.548
X169.926Y-69.596
X169.926Y-76.2
X169.926Y-79.248
X170.18Y-86.36
X170.18Y-91.44
X170.18Y-101.6
X170.18Y-127.0
X170.18Y-132.08
X170.18Y-137.16
X170.18Y-142.24
X172.72Y-83.82
X172.72Y-88.9
X172.72Y-93.98
X172.72Y-99.06
X172.72Y-104.14
X172.72Y-114.3
X172.72Y-129.54
X172.72Y-134.62
X172.72Y-139.7
X175.006Y-126.619
X175.26Y-86.36
X175.26Y-91.44
X175.26Y-132.08
X175.26Y-137.16
X175.26Y-142.24
X176.276Y-127.793
X177.8Y-83.82
X177.8Y-88.9
X177.8Y-93.98
X177.8Y-114.3
X177.8Y-134.62
X177.8Y-139.7
X178.033Y-129.55
X180.333Y-107.842
X180.34Y-81.026
X180.34Y-132.08
X180.34Y-137.16
X180.34Y-142.24
X182.626Y-95.504
X182.626Y-97.282
X182.633Y-99.342
X182.88Y-114.3
X182.88Y-134.62
X182.88Y-139.7
X185.42Y-86.36
X185.42Y-91.44
X185.42Y-96.52
X185.42Y-101.6
X185.42Y-132.08
X185.42Y-137.16
X185.42Y-142.24
X187.96Y-88.9
X187.96Y-93.98
X187.96Y-99.06
X187.96Y-114.3
X187.96Y-134.62
X187.96Y-139.7
X190.5Y-86.36
X190.5Y-91.44
X190.5Y-96.52
X190.5Y-101.6
X190.5Y-132.08
X190.5Y-137.16
X190.5Y-142.24
X193.04Y-88.9
X193.04Y-93.98
X193.04Y-99.06
X193.04Y-114.3
X193.04Y-129.54
X193.04Y-134.62
X193.04Y-139.7
X195.58Y-91.44
X195.58Y-96.52
X195.58Y-101.6
X195.58Y-127.0
X195.58Y-132.08
X195.58Y-137.16
X195.58Y-142.24
X198.12Y-93.98
X198.12Y-99.06
X198.12Y-114.3
X198.12Y-124.46
X198.12Y-129.54
X198.12Y-134.62
X200.66Y-116.84
X200.66Y-127.0
X200.66Y-132.08
X203.2Y-114.3
X203.2Y-119.38
X203.2Y-124.46
X203.2Y-129.54
X203.2Y-134.62
T3
X115.887Y-64.85
X115.887Y-67.35
X115.887Y-69.85
X115.887Y-72.35
T4
X123.576Y-100.496
X123.576Y-107.696
X123.672Y-122.428
X123.672Y-129.628
X195.58Y-110.954
X195.58Y-118.154
T6
X109.982Y-50.038
X110.0Y-140.0
X200.0Y-50.0
X200.0Y-140.0
T2
G00X117.026Y-97.346
M15
G01X118.126Y-97.346
M16
G05
G00X117.026Y-110.846
M15
G01X118.126Y-110.846
M16
G05
G00X117.122Y-119.278
M15
G01X118.222Y-119.278
M16
G05
G00X117.122Y-132.778
M15
G01X118.222Y-132.778
M16
G05
G00X202.13Y-107.804
M15
G01X201.03Y-107.804
M16
G05
G00X202.13Y-121.304
M15
G01X201.03Y-121.304
M16
G05
T5
G00X109.387Y-68.2
M15
G01X109.387Y-69.0
M16
G05
T0
M30
